<mxfile host="app.diagrams.net" modified="2022-06-24T04:03:25.480Z" agent="5.0 (Windows NT 10.0; Win64; x64) AppleWebKit/537.36 (KHTML, like Gecko) Chrome/102.0.5005.124 Safari/537.36 Edg/102.0.1245.44" etag="BNfoODr2PgFr0FwlHhAP" version="20.0.3" type="github" pages="2">
  <diagram name="new-tail-add" id="ZyymWo9Ju4bG1OKpBlk-">
    <mxGraphModel dx="979" dy="550" grid="1" gridSize="10" guides="1" tooltips="1" connect="1" arrows="1" fold="1" page="1" pageScale="1" pageWidth="827" pageHeight="1169" background="#F4F1DE" math="0" shadow="0">
      <root>
        <mxCell id="obOgJhC0-ivwSwMURxUH-0" />
        <mxCell id="obOgJhC0-ivwSwMURxUH-1" parent="obOgJhC0-ivwSwMURxUH-0" />
        <mxCell id="obOgJhC0-ivwSwMURxUH-2" value="" style="shape=flexArrow;endArrow=classic;html=1;rounded=0;shadow=1;sketch=1;" edge="1" parent="obOgJhC0-ivwSwMURxUH-1">
          <mxGeometry width="50" height="50" relative="1" as="geometry">
            <mxPoint x="354.5" y="760" as="sourcePoint" />
            <mxPoint x="355" y="990" as="targetPoint" />
          </mxGeometry>
        </mxCell>
        <mxCell id="obOgJhC0-ivwSwMURxUH-3" value="" style="shape=table;startSize=0;container=1;collapsible=0;childLayout=tableLayout;rounded=1;fontColor=#393C56;strokeColor=#E07A5F;fillColor=#F2CC8F;shadow=1;" vertex="1" parent="obOgJhC0-ivwSwMURxUH-1">
          <mxGeometry x="140" y="610" width="50" height="40" as="geometry" />
        </mxCell>
        <mxCell id="obOgJhC0-ivwSwMURxUH-4" value="" style="shape=tableRow;horizontal=0;startSize=0;swimlaneHead=0;swimlaneBody=0;top=0;left=0;bottom=0;right=0;collapsible=0;dropTarget=0;fillColor=none;points=[[0,0.5],[1,0.5]];portConstraint=eastwest;rounded=0;fontColor=#393C56;strokeColor=#E07A5F;" vertex="1" parent="obOgJhC0-ivwSwMURxUH-3">
          <mxGeometry width="50" height="40" as="geometry" />
        </mxCell>
        <mxCell id="obOgJhC0-ivwSwMURxUH-5" value="" style="shape=partialRectangle;html=1;whiteSpace=wrap;connectable=0;overflow=hidden;fillColor=none;top=0;left=0;bottom=0;right=0;pointerEvents=1;rounded=0;fontColor=#393C56;strokeColor=#E07A5F;" vertex="1" parent="obOgJhC0-ivwSwMURxUH-4">
          <mxGeometry width="50" height="40" as="geometry">
            <mxRectangle width="50" height="40" as="alternateBounds" />
          </mxGeometry>
        </mxCell>
        <mxCell id="obOgJhC0-ivwSwMURxUH-6" style="edgeStyle=orthogonalEdgeStyle;curved=0;rounded=1;orthogonalLoop=1;jettySize=auto;html=1;entryX=0;entryY=0.5;entryDx=0;entryDy=0;fontColor=#393C56;strokeColor=#E07A5F;fillColor=#F2CC8F;" edge="1" parent="obOgJhC0-ivwSwMURxUH-1" source="obOgJhC0-ivwSwMURxUH-7" target="obOgJhC0-ivwSwMURxUH-11">
          <mxGeometry relative="1" as="geometry" />
        </mxCell>
        <mxCell id="obOgJhC0-ivwSwMURxUH-7" value="" style="shape=table;startSize=0;container=1;collapsible=0;childLayout=tableLayout;rounded=1;fontColor=#393C56;strokeColor=#E07A5F;fillColor=#F2CC8F;shadow=1;" vertex="1" parent="obOgJhC0-ivwSwMURxUH-1">
          <mxGeometry x="240" y="610" width="50" height="40" as="geometry" />
        </mxCell>
        <mxCell id="obOgJhC0-ivwSwMURxUH-8" value="" style="shape=tableRow;horizontal=0;startSize=0;swimlaneHead=0;swimlaneBody=0;top=0;left=0;bottom=0;right=0;collapsible=0;dropTarget=0;fillColor=none;points=[[0,0.5],[1,0.5]];portConstraint=eastwest;rounded=0;fontColor=#393C56;strokeColor=#E07A5F;" vertex="1" parent="obOgJhC0-ivwSwMURxUH-7">
          <mxGeometry width="50" height="40" as="geometry" />
        </mxCell>
        <mxCell id="obOgJhC0-ivwSwMURxUH-9" value="" style="shape=partialRectangle;html=1;whiteSpace=wrap;connectable=0;overflow=hidden;fillColor=none;top=0;left=0;bottom=0;right=0;pointerEvents=1;rounded=0;fontColor=#393C56;strokeColor=#E07A5F;" vertex="1" parent="obOgJhC0-ivwSwMURxUH-8">
          <mxGeometry width="50" height="40" as="geometry">
            <mxRectangle width="50" height="40" as="alternateBounds" />
          </mxGeometry>
        </mxCell>
        <mxCell id="obOgJhC0-ivwSwMURxUH-10" value="" style="shape=table;startSize=0;container=1;collapsible=0;childLayout=tableLayout;rounded=1;fontColor=#393C56;strokeColor=#E07A5F;fillColor=#F2CC8F;shadow=1;" vertex="1" parent="obOgJhC0-ivwSwMURxUH-1">
          <mxGeometry x="330" y="610" width="50" height="40" as="geometry" />
        </mxCell>
        <mxCell id="obOgJhC0-ivwSwMURxUH-11" value="" style="shape=tableRow;horizontal=0;startSize=0;swimlaneHead=0;swimlaneBody=0;top=0;left=0;bottom=0;right=0;collapsible=0;dropTarget=0;fillColor=none;points=[[0,0.5],[1,0.5]];portConstraint=eastwest;rounded=0;fontColor=#393C56;strokeColor=#E07A5F;" vertex="1" parent="obOgJhC0-ivwSwMURxUH-10">
          <mxGeometry width="50" height="40" as="geometry" />
        </mxCell>
        <mxCell id="obOgJhC0-ivwSwMURxUH-12" value="" style="shape=partialRectangle;html=1;whiteSpace=wrap;connectable=0;overflow=hidden;fillColor=none;top=0;left=0;bottom=0;right=0;pointerEvents=1;rounded=0;fontColor=#393C56;strokeColor=#E07A5F;" vertex="1" parent="obOgJhC0-ivwSwMURxUH-11">
          <mxGeometry width="50" height="40" as="geometry">
            <mxRectangle width="50" height="40" as="alternateBounds" />
          </mxGeometry>
        </mxCell>
        <mxCell id="obOgJhC0-ivwSwMURxUH-13" value="" style="shape=table;startSize=0;container=1;collapsible=0;childLayout=tableLayout;rounded=1;fontColor=#393C56;strokeColor=#E07A5F;fillColor=#F2CC8F;shadow=1;" vertex="1" parent="obOgJhC0-ivwSwMURxUH-1">
          <mxGeometry x="420" y="610" width="50" height="40" as="geometry" />
        </mxCell>
        <mxCell id="obOgJhC0-ivwSwMURxUH-14" value="" style="shape=tableRow;horizontal=0;startSize=0;swimlaneHead=0;swimlaneBody=0;top=0;left=0;bottom=0;right=0;collapsible=0;dropTarget=0;fillColor=none;points=[[0,0.5],[1,0.5]];portConstraint=eastwest;rounded=0;fontColor=#393C56;strokeColor=#E07A5F;" vertex="1" parent="obOgJhC0-ivwSwMURxUH-13">
          <mxGeometry width="50" height="40" as="geometry" />
        </mxCell>
        <mxCell id="obOgJhC0-ivwSwMURxUH-15" value="" style="shape=partialRectangle;html=1;whiteSpace=wrap;connectable=0;overflow=hidden;fillColor=none;top=0;left=0;bottom=0;right=0;pointerEvents=1;rounded=0;fontColor=#393C56;strokeColor=#E07A5F;" vertex="1" parent="obOgJhC0-ivwSwMURxUH-14">
          <mxGeometry width="50" height="40" as="geometry">
            <mxRectangle width="50" height="40" as="alternateBounds" />
          </mxGeometry>
        </mxCell>
        <mxCell id="obOgJhC0-ivwSwMURxUH-16" value="" style="shape=table;startSize=0;container=1;collapsible=0;childLayout=tableLayout;rounded=1;fontColor=#393C56;strokeColor=#E07A5F;fillColor=#F2CC8F;shadow=1;" vertex="1" parent="obOgJhC0-ivwSwMURxUH-1">
          <mxGeometry x="510" y="610" width="50" height="40" as="geometry" />
        </mxCell>
        <mxCell id="obOgJhC0-ivwSwMURxUH-17" value="" style="shape=tableRow;horizontal=0;startSize=0;swimlaneHead=0;swimlaneBody=0;top=0;left=0;bottom=0;right=0;collapsible=0;dropTarget=0;fillColor=none;points=[[0,0.5],[1,0.5]];portConstraint=eastwest;rounded=0;fontColor=#393C56;strokeColor=#E07A5F;" vertex="1" parent="obOgJhC0-ivwSwMURxUH-16">
          <mxGeometry width="50" height="40" as="geometry" />
        </mxCell>
        <mxCell id="obOgJhC0-ivwSwMURxUH-18" value="" style="shape=partialRectangle;html=1;whiteSpace=wrap;connectable=0;overflow=hidden;fillColor=none;top=0;left=0;bottom=0;right=0;pointerEvents=1;rounded=0;fontColor=#393C56;strokeColor=#E07A5F;" vertex="1" parent="obOgJhC0-ivwSwMURxUH-17">
          <mxGeometry width="50" height="40" as="geometry">
            <mxRectangle width="50" height="40" as="alternateBounds" />
          </mxGeometry>
        </mxCell>
        <mxCell id="obOgJhC0-ivwSwMURxUH-19" style="edgeStyle=orthogonalEdgeStyle;curved=0;rounded=1;orthogonalLoop=1;jettySize=auto;html=1;entryX=0;entryY=0.5;entryDx=0;entryDy=0;fontColor=#393C56;strokeColor=#E07A5F;fillColor=#F2CC8F;" edge="1" parent="obOgJhC0-ivwSwMURxUH-1" source="obOgJhC0-ivwSwMURxUH-4" target="obOgJhC0-ivwSwMURxUH-8">
          <mxGeometry relative="1" as="geometry" />
        </mxCell>
        <mxCell id="obOgJhC0-ivwSwMURxUH-20" style="edgeStyle=orthogonalEdgeStyle;curved=0;rounded=1;orthogonalLoop=1;jettySize=auto;html=1;entryX=0;entryY=0.5;entryDx=0;entryDy=0;fontColor=#393C56;strokeColor=#E07A5F;fillColor=#F2CC8F;" edge="1" parent="obOgJhC0-ivwSwMURxUH-1" source="obOgJhC0-ivwSwMURxUH-11" target="obOgJhC0-ivwSwMURxUH-14">
          <mxGeometry relative="1" as="geometry" />
        </mxCell>
        <mxCell id="obOgJhC0-ivwSwMURxUH-21" style="edgeStyle=orthogonalEdgeStyle;curved=0;rounded=1;orthogonalLoop=1;jettySize=auto;html=1;entryX=0;entryY=0.5;entryDx=0;entryDy=0;fontColor=#393C56;strokeColor=#E07A5F;fillColor=#F2CC8F;" edge="1" parent="obOgJhC0-ivwSwMURxUH-1" source="obOgJhC0-ivwSwMURxUH-14" target="obOgJhC0-ivwSwMURxUH-17">
          <mxGeometry relative="1" as="geometry" />
        </mxCell>
        <mxCell id="obOgJhC0-ivwSwMURxUH-22" value="" style="endArrow=classic;html=1;rounded=1;fontColor=#393C56;strokeColor=#E07A5F;fillColor=#F2CC8F;curved=0;entryX=0.463;entryY=-0.108;entryDx=0;entryDy=0;entryPerimeter=0;" edge="1" parent="obOgJhC0-ivwSwMURxUH-1" target="obOgJhC0-ivwSwMURxUH-4">
          <mxGeometry width="50" height="50" relative="1" as="geometry">
            <mxPoint x="163" y="560" as="sourcePoint" />
            <mxPoint x="180" y="510" as="targetPoint" />
          </mxGeometry>
        </mxCell>
        <mxCell id="obOgJhC0-ivwSwMURxUH-23" value="&lt;font style=&quot;font-size: 18px;&quot; face=&quot;Comic Sans MS&quot;&gt;&lt;b&gt;head&lt;/b&gt;&lt;/font&gt;" style="text;html=1;strokeColor=#999900;fillColor=#d5e8d4;align=center;verticalAlign=middle;whiteSpace=wrap;rounded=1;shadow=1;glass=0;sketch=1;gradientColor=none;" vertex="1" parent="obOgJhC0-ivwSwMURxUH-1">
          <mxGeometry x="130" y="530" width="60" height="30" as="geometry" />
        </mxCell>
        <mxCell id="obOgJhC0-ivwSwMURxUH-24" style="edgeStyle=orthogonalEdgeStyle;curved=0;rounded=1;orthogonalLoop=1;jettySize=auto;html=1;entryX=0.5;entryY=0;entryDx=0;entryDy=0;entryPerimeter=0;fontFamily=Comic Sans MS;fontSize=18;fontColor=#393C56;strokeColor=#E07A5F;fillColor=#F2CC8F;" edge="1" parent="obOgJhC0-ivwSwMURxUH-1" source="obOgJhC0-ivwSwMURxUH-25" target="obOgJhC0-ivwSwMURxUH-17">
          <mxGeometry relative="1" as="geometry" />
        </mxCell>
        <mxCell id="obOgJhC0-ivwSwMURxUH-25" value="&lt;font style=&quot;font-size: 18px;&quot; face=&quot;Comic Sans MS&quot;&gt;&lt;b&gt;tail&lt;/b&gt;&lt;/font&gt;" style="text;html=1;strokeColor=#999900;fillColor=#d5e8d4;align=center;verticalAlign=middle;whiteSpace=wrap;rounded=1;shadow=1;sketch=1;" vertex="1" parent="obOgJhC0-ivwSwMURxUH-1">
          <mxGeometry x="505" y="530" width="60" height="30" as="geometry" />
        </mxCell>
        <mxCell id="obOgJhC0-ivwSwMURxUH-26" style="edgeStyle=orthogonalEdgeStyle;curved=1;rounded=0;orthogonalLoop=1;jettySize=auto;html=1;entryX=1;entryY=0.5;entryDx=0;entryDy=0;fontFamily=Comic Sans MS;fontSize=18;" edge="1" parent="obOgJhC0-ivwSwMURxUH-1" source="obOgJhC0-ivwSwMURxUH-27" target="obOgJhC0-ivwSwMURxUH-17">
          <mxGeometry relative="1" as="geometry" />
        </mxCell>
        <mxCell id="obOgJhC0-ivwSwMURxUH-27" value="&lt;font style=&quot;font-size: 18px;&quot; face=&quot;Comic Sans MS&quot;&gt;&lt;b&gt;Thread-A&lt;/b&gt;&lt;/font&gt;" style="rounded=1;whiteSpace=wrap;html=1;shadow=1;fillColor=#d5e8d4;strokeColor=#82b366;" vertex="1" parent="obOgJhC0-ivwSwMURxUH-1">
          <mxGeometry x="660" y="490" width="120" height="60" as="geometry" />
        </mxCell>
        <mxCell id="obOgJhC0-ivwSwMURxUH-28" style="edgeStyle=orthogonalEdgeStyle;curved=1;rounded=0;orthogonalLoop=1;jettySize=auto;html=1;entryX=1.063;entryY=0.815;entryDx=0;entryDy=0;entryPerimeter=0;fontFamily=Comic Sans MS;fontSize=18;" edge="1" parent="obOgJhC0-ivwSwMURxUH-1" source="obOgJhC0-ivwSwMURxUH-29" target="obOgJhC0-ivwSwMURxUH-17">
          <mxGeometry relative="1" as="geometry" />
        </mxCell>
        <mxCell id="obOgJhC0-ivwSwMURxUH-29" value="&lt;font style=&quot;font-size: 18px;&quot; face=&quot;Comic Sans MS&quot;&gt;&lt;b&gt;Thread-B&lt;/b&gt;&lt;/font&gt;" style="rounded=1;whiteSpace=wrap;html=1;shadow=1;fillColor=#d5e8d4;strokeColor=#82b366;" vertex="1" parent="obOgJhC0-ivwSwMURxUH-1">
          <mxGeometry x="660" y="740" width="120" height="60" as="geometry" />
        </mxCell>
        <mxCell id="obOgJhC0-ivwSwMURxUH-30" value="&lt;b&gt;&lt;font color=&quot;#006666&quot;&gt;prev&lt;/font&gt;&lt;/b&gt;" style="text;html=1;strokeColor=none;fillColor=none;align=center;verticalAlign=middle;whiteSpace=wrap;rounded=0;shadow=1;fontFamily=Comic Sans MS;fontSize=18;" vertex="1" parent="obOgJhC0-ivwSwMURxUH-1">
          <mxGeometry x="610" y="580" width="60" height="30" as="geometry" />
        </mxCell>
        <mxCell id="obOgJhC0-ivwSwMURxUH-31" value="&lt;b&gt;&lt;font color=&quot;#006666&quot;&gt;prev&lt;/font&gt;&lt;/b&gt;" style="text;html=1;strokeColor=none;fillColor=none;align=center;verticalAlign=middle;whiteSpace=wrap;rounded=0;shadow=1;fontFamily=Comic Sans MS;fontSize=18;" vertex="1" parent="obOgJhC0-ivwSwMURxUH-1">
          <mxGeometry x="610" y="680" width="60" height="30" as="geometry" />
        </mxCell>
        <mxCell id="obOgJhC0-ivwSwMURxUH-32" value="&lt;b&gt;CAS&lt;/b&gt;" style="text;html=1;align=center;verticalAlign=middle;whiteSpace=wrap;rounded=0;shadow=1;fontFamily=Comic Sans MS;fontSize=18;glass=1;sketch=1;fillColor=#d5e8d4;strokeColor=#999900;" vertex="1" parent="obOgJhC0-ivwSwMURxUH-1">
          <mxGeometry x="380" y="860" width="50" height="60" as="geometry" />
        </mxCell>
        <mxCell id="obOgJhC0-ivwSwMURxUH-33" value="" style="shape=table;startSize=0;container=1;collapsible=0;childLayout=tableLayout;rounded=1;fontColor=#393C56;strokeColor=#E07A5F;fillColor=#F2CC8F;shadow=1;" vertex="1" parent="obOgJhC0-ivwSwMURxUH-1">
          <mxGeometry x="90" y="1240" width="50" height="40" as="geometry" />
        </mxCell>
        <mxCell id="obOgJhC0-ivwSwMURxUH-34" value="" style="shape=tableRow;horizontal=0;startSize=0;swimlaneHead=0;swimlaneBody=0;top=0;left=0;bottom=0;right=0;collapsible=0;dropTarget=0;fillColor=none;points=[[0,0.5],[1,0.5]];portConstraint=eastwest;rounded=0;fontColor=#393C56;strokeColor=#E07A5F;" vertex="1" parent="obOgJhC0-ivwSwMURxUH-33">
          <mxGeometry width="50" height="40" as="geometry" />
        </mxCell>
        <mxCell id="obOgJhC0-ivwSwMURxUH-35" value="" style="shape=partialRectangle;html=1;whiteSpace=wrap;connectable=0;overflow=hidden;fillColor=none;top=0;left=0;bottom=0;right=0;pointerEvents=1;rounded=0;fontColor=#393C56;strokeColor=#E07A5F;" vertex="1" parent="obOgJhC0-ivwSwMURxUH-34">
          <mxGeometry width="50" height="40" as="geometry">
            <mxRectangle width="50" height="40" as="alternateBounds" />
          </mxGeometry>
        </mxCell>
        <mxCell id="obOgJhC0-ivwSwMURxUH-36" style="edgeStyle=orthogonalEdgeStyle;curved=0;rounded=1;orthogonalLoop=1;jettySize=auto;html=1;entryX=0;entryY=0.5;entryDx=0;entryDy=0;fontColor=#393C56;strokeColor=#E07A5F;fillColor=#F2CC8F;" edge="1" parent="obOgJhC0-ivwSwMURxUH-1" source="obOgJhC0-ivwSwMURxUH-37" target="obOgJhC0-ivwSwMURxUH-41">
          <mxGeometry relative="1" as="geometry" />
        </mxCell>
        <mxCell id="obOgJhC0-ivwSwMURxUH-37" value="" style="shape=table;startSize=0;container=1;collapsible=0;childLayout=tableLayout;rounded=1;fontColor=#393C56;strokeColor=#E07A5F;fillColor=#F2CC8F;shadow=1;" vertex="1" parent="obOgJhC0-ivwSwMURxUH-1">
          <mxGeometry x="190" y="1240" width="50" height="40" as="geometry" />
        </mxCell>
        <mxCell id="obOgJhC0-ivwSwMURxUH-38" value="" style="shape=tableRow;horizontal=0;startSize=0;swimlaneHead=0;swimlaneBody=0;top=0;left=0;bottom=0;right=0;collapsible=0;dropTarget=0;fillColor=none;points=[[0,0.5],[1,0.5]];portConstraint=eastwest;rounded=0;fontColor=#393C56;strokeColor=#E07A5F;" vertex="1" parent="obOgJhC0-ivwSwMURxUH-37">
          <mxGeometry width="50" height="40" as="geometry" />
        </mxCell>
        <mxCell id="obOgJhC0-ivwSwMURxUH-39" value="" style="shape=partialRectangle;html=1;whiteSpace=wrap;connectable=0;overflow=hidden;fillColor=none;top=0;left=0;bottom=0;right=0;pointerEvents=1;rounded=0;fontColor=#393C56;strokeColor=#E07A5F;" vertex="1" parent="obOgJhC0-ivwSwMURxUH-38">
          <mxGeometry width="50" height="40" as="geometry">
            <mxRectangle width="50" height="40" as="alternateBounds" />
          </mxGeometry>
        </mxCell>
        <mxCell id="obOgJhC0-ivwSwMURxUH-40" value="" style="shape=table;startSize=0;container=1;collapsible=0;childLayout=tableLayout;rounded=1;fontColor=#393C56;strokeColor=#E07A5F;fillColor=#F2CC8F;shadow=1;" vertex="1" parent="obOgJhC0-ivwSwMURxUH-1">
          <mxGeometry x="280" y="1240" width="50" height="40" as="geometry" />
        </mxCell>
        <mxCell id="obOgJhC0-ivwSwMURxUH-41" value="" style="shape=tableRow;horizontal=0;startSize=0;swimlaneHead=0;swimlaneBody=0;top=0;left=0;bottom=0;right=0;collapsible=0;dropTarget=0;fillColor=none;points=[[0,0.5],[1,0.5]];portConstraint=eastwest;rounded=0;fontColor=#393C56;strokeColor=#E07A5F;" vertex="1" parent="obOgJhC0-ivwSwMURxUH-40">
          <mxGeometry width="50" height="40" as="geometry" />
        </mxCell>
        <mxCell id="obOgJhC0-ivwSwMURxUH-42" value="" style="shape=partialRectangle;html=1;whiteSpace=wrap;connectable=0;overflow=hidden;fillColor=none;top=0;left=0;bottom=0;right=0;pointerEvents=1;rounded=0;fontColor=#393C56;strokeColor=#E07A5F;" vertex="1" parent="obOgJhC0-ivwSwMURxUH-41">
          <mxGeometry width="50" height="40" as="geometry">
            <mxRectangle width="50" height="40" as="alternateBounds" />
          </mxGeometry>
        </mxCell>
        <mxCell id="obOgJhC0-ivwSwMURxUH-43" value="" style="shape=table;startSize=0;container=1;collapsible=0;childLayout=tableLayout;rounded=1;fontColor=#393C56;strokeColor=#E07A5F;fillColor=#F2CC8F;shadow=1;" vertex="1" parent="obOgJhC0-ivwSwMURxUH-1">
          <mxGeometry x="370" y="1240" width="50" height="40" as="geometry" />
        </mxCell>
        <mxCell id="obOgJhC0-ivwSwMURxUH-44" value="" style="shape=tableRow;horizontal=0;startSize=0;swimlaneHead=0;swimlaneBody=0;top=0;left=0;bottom=0;right=0;collapsible=0;dropTarget=0;fillColor=none;points=[[0,0.5],[1,0.5]];portConstraint=eastwest;rounded=0;fontColor=#393C56;strokeColor=#E07A5F;" vertex="1" parent="obOgJhC0-ivwSwMURxUH-43">
          <mxGeometry width="50" height="40" as="geometry" />
        </mxCell>
        <mxCell id="obOgJhC0-ivwSwMURxUH-45" value="" style="shape=partialRectangle;html=1;whiteSpace=wrap;connectable=0;overflow=hidden;fillColor=none;top=0;left=0;bottom=0;right=0;pointerEvents=1;rounded=0;fontColor=#393C56;strokeColor=#E07A5F;" vertex="1" parent="obOgJhC0-ivwSwMURxUH-44">
          <mxGeometry width="50" height="40" as="geometry">
            <mxRectangle width="50" height="40" as="alternateBounds" />
          </mxGeometry>
        </mxCell>
        <mxCell id="obOgJhC0-ivwSwMURxUH-46" value="" style="shape=table;startSize=0;container=1;collapsible=0;childLayout=tableLayout;rounded=1;fontColor=#393C56;strokeColor=#E07A5F;fillColor=#F2CC8F;shadow=1;" vertex="1" parent="obOgJhC0-ivwSwMURxUH-1">
          <mxGeometry x="460" y="1240" width="50" height="40" as="geometry" />
        </mxCell>
        <mxCell id="obOgJhC0-ivwSwMURxUH-47" value="" style="shape=tableRow;horizontal=0;startSize=0;swimlaneHead=0;swimlaneBody=0;top=0;left=0;bottom=0;right=0;collapsible=0;dropTarget=0;fillColor=none;points=[[0,0.5],[1,0.5]];portConstraint=eastwest;rounded=0;fontColor=#393C56;strokeColor=#E07A5F;" vertex="1" parent="obOgJhC0-ivwSwMURxUH-46">
          <mxGeometry width="50" height="40" as="geometry" />
        </mxCell>
        <mxCell id="obOgJhC0-ivwSwMURxUH-48" value="" style="shape=partialRectangle;html=1;whiteSpace=wrap;connectable=0;overflow=hidden;fillColor=none;top=0;left=0;bottom=0;right=0;pointerEvents=1;rounded=0;fontColor=#393C56;strokeColor=#E07A5F;" vertex="1" parent="obOgJhC0-ivwSwMURxUH-47">
          <mxGeometry width="50" height="40" as="geometry">
            <mxRectangle width="50" height="40" as="alternateBounds" />
          </mxGeometry>
        </mxCell>
        <mxCell id="obOgJhC0-ivwSwMURxUH-49" style="edgeStyle=orthogonalEdgeStyle;curved=0;rounded=1;orthogonalLoop=1;jettySize=auto;html=1;entryX=0;entryY=0.5;entryDx=0;entryDy=0;fontColor=#393C56;strokeColor=#E07A5F;fillColor=#F2CC8F;" edge="1" parent="obOgJhC0-ivwSwMURxUH-1" source="obOgJhC0-ivwSwMURxUH-34" target="obOgJhC0-ivwSwMURxUH-38">
          <mxGeometry relative="1" as="geometry" />
        </mxCell>
        <mxCell id="obOgJhC0-ivwSwMURxUH-50" style="edgeStyle=orthogonalEdgeStyle;curved=0;rounded=1;orthogonalLoop=1;jettySize=auto;html=1;entryX=0;entryY=0.5;entryDx=0;entryDy=0;fontColor=#393C56;strokeColor=#E07A5F;fillColor=#F2CC8F;" edge="1" parent="obOgJhC0-ivwSwMURxUH-1" source="obOgJhC0-ivwSwMURxUH-41" target="obOgJhC0-ivwSwMURxUH-44">
          <mxGeometry relative="1" as="geometry" />
        </mxCell>
        <mxCell id="obOgJhC0-ivwSwMURxUH-51" style="edgeStyle=orthogonalEdgeStyle;curved=0;rounded=1;orthogonalLoop=1;jettySize=auto;html=1;entryX=0;entryY=0.5;entryDx=0;entryDy=0;fontColor=#393C56;strokeColor=#E07A5F;fillColor=#F2CC8F;" edge="1" parent="obOgJhC0-ivwSwMURxUH-1" source="obOgJhC0-ivwSwMURxUH-44" target="obOgJhC0-ivwSwMURxUH-47">
          <mxGeometry relative="1" as="geometry" />
        </mxCell>
        <mxCell id="obOgJhC0-ivwSwMURxUH-52" value="" style="endArrow=classic;html=1;rounded=1;fontColor=#393C56;strokeColor=#E07A5F;fillColor=#F2CC8F;curved=0;entryX=0.463;entryY=-0.108;entryDx=0;entryDy=0;entryPerimeter=0;" edge="1" parent="obOgJhC0-ivwSwMURxUH-1" target="obOgJhC0-ivwSwMURxUH-34">
          <mxGeometry width="50" height="50" relative="1" as="geometry">
            <mxPoint x="113" y="1190" as="sourcePoint" />
            <mxPoint x="130" y="1140" as="targetPoint" />
          </mxGeometry>
        </mxCell>
        <mxCell id="obOgJhC0-ivwSwMURxUH-53" value="&lt;font style=&quot;font-size: 18px;&quot; face=&quot;Comic Sans MS&quot;&gt;&lt;b&gt;head&lt;/b&gt;&lt;/font&gt;" style="text;html=1;strokeColor=#999900;fillColor=#d5e8d4;align=center;verticalAlign=middle;whiteSpace=wrap;rounded=1;shadow=1;sketch=1;" vertex="1" parent="obOgJhC0-ivwSwMURxUH-1">
          <mxGeometry x="80" y="1160" width="60" height="30" as="geometry" />
        </mxCell>
        <mxCell id="obOgJhC0-ivwSwMURxUH-54" style="edgeStyle=orthogonalEdgeStyle;curved=1;rounded=0;sketch=1;orthogonalLoop=1;jettySize=auto;html=1;entryX=0.5;entryY=0;entryDx=0;entryDy=0;shadow=1;fontFamily=Comic Sans MS;fontSize=18;" edge="1" parent="obOgJhC0-ivwSwMURxUH-1" source="obOgJhC0-ivwSwMURxUH-55" target="obOgJhC0-ivwSwMURxUH-57">
          <mxGeometry relative="1" as="geometry" />
        </mxCell>
        <mxCell id="obOgJhC0-ivwSwMURxUH-55" value="&lt;font style=&quot;font-size: 18px;&quot; face=&quot;Comic Sans MS&quot;&gt;&lt;b&gt;tail&lt;/b&gt;&lt;/font&gt;" style="text;html=1;strokeColor=#999900;fillColor=#d5e8d4;align=center;verticalAlign=middle;whiteSpace=wrap;rounded=1;shadow=1;sketch=1;" vertex="1" parent="obOgJhC0-ivwSwMURxUH-1">
          <mxGeometry x="640" y="1040" width="60" height="30" as="geometry" />
        </mxCell>
        <mxCell id="obOgJhC0-ivwSwMURxUH-56" style="edgeStyle=orthogonalEdgeStyle;curved=1;rounded=0;orthogonalLoop=1;jettySize=auto;html=1;entryX=1;entryY=0.5;entryDx=0;entryDy=0;fontFamily=Comic Sans MS;fontSize=18;" edge="1" parent="obOgJhC0-ivwSwMURxUH-1" source="obOgJhC0-ivwSwMURxUH-57" target="obOgJhC0-ivwSwMURxUH-47">
          <mxGeometry relative="1" as="geometry" />
        </mxCell>
        <mxCell id="obOgJhC0-ivwSwMURxUH-57" value="&lt;font style=&quot;font-size: 18px;&quot; face=&quot;Comic Sans MS&quot;&gt;&lt;b&gt;Thread-A&lt;/b&gt;&lt;/font&gt;" style="rounded=1;whiteSpace=wrap;html=1;shadow=1;fillColor=#d5e8d4;strokeColor=#82b366;" vertex="1" parent="obOgJhC0-ivwSwMURxUH-1">
          <mxGeometry x="610" y="1120" width="120" height="60" as="geometry" />
        </mxCell>
        <mxCell id="obOgJhC0-ivwSwMURxUH-58" style="edgeStyle=orthogonalEdgeStyle;curved=1;rounded=0;orthogonalLoop=1;jettySize=auto;html=1;entryX=1.063;entryY=0.815;entryDx=0;entryDy=0;entryPerimeter=0;fontFamily=Comic Sans MS;fontSize=18;" edge="1" parent="obOgJhC0-ivwSwMURxUH-1" source="obOgJhC0-ivwSwMURxUH-59" target="obOgJhC0-ivwSwMURxUH-47">
          <mxGeometry relative="1" as="geometry" />
        </mxCell>
        <mxCell id="obOgJhC0-ivwSwMURxUH-59" value="&lt;font style=&quot;font-size: 18px;&quot; face=&quot;Comic Sans MS&quot;&gt;&lt;b&gt;Thread-B&lt;/b&gt;&lt;/font&gt;" style="rounded=1;whiteSpace=wrap;html=1;shadow=1;fillColor=#d5e8d4;strokeColor=#82b366;" vertex="1" parent="obOgJhC0-ivwSwMURxUH-1">
          <mxGeometry x="610" y="1370" width="120" height="60" as="geometry" />
        </mxCell>
        <mxCell id="obOgJhC0-ivwSwMURxUH-60" value="&lt;b&gt;&lt;font color=&quot;#006666&quot;&gt;prev&lt;/font&gt;&lt;/b&gt;" style="text;html=1;strokeColor=none;fillColor=none;align=center;verticalAlign=middle;whiteSpace=wrap;rounded=0;shadow=1;fontFamily=Comic Sans MS;fontSize=18;" vertex="1" parent="obOgJhC0-ivwSwMURxUH-1">
          <mxGeometry x="560" y="1210" width="60" height="30" as="geometry" />
        </mxCell>
        <mxCell id="obOgJhC0-ivwSwMURxUH-61" value="&lt;b&gt;&lt;font color=&quot;#006666&quot;&gt;prev&lt;/font&gt;&lt;/b&gt;" style="text;html=1;strokeColor=none;fillColor=none;align=center;verticalAlign=middle;whiteSpace=wrap;rounded=0;shadow=1;fontFamily=Comic Sans MS;fontSize=18;" vertex="1" parent="obOgJhC0-ivwSwMURxUH-1">
          <mxGeometry x="560" y="1310" width="60" height="30" as="geometry" />
        </mxCell>
        <mxCell id="obOgJhC0-ivwSwMURxUH-62" value="" style="shape=flexArrow;endArrow=classic;html=1;rounded=0;shadow=1;sketch=1;" edge="1" parent="obOgJhC0-ivwSwMURxUH-1">
          <mxGeometry width="50" height="50" relative="1" as="geometry">
            <mxPoint x="354.5" y="1450" as="sourcePoint" />
            <mxPoint x="355" y="1595" as="targetPoint" />
          </mxGeometry>
        </mxCell>
        <mxCell id="obOgJhC0-ivwSwMURxUH-63" value="" style="shape=table;startSize=0;container=1;collapsible=0;childLayout=tableLayout;rounded=1;fontColor=#393C56;strokeColor=#E07A5F;fillColor=#F2CC8F;shadow=1;" vertex="1" parent="obOgJhC0-ivwSwMURxUH-1">
          <mxGeometry x="110" y="1710" width="50" height="40" as="geometry" />
        </mxCell>
        <mxCell id="obOgJhC0-ivwSwMURxUH-64" value="" style="shape=tableRow;horizontal=0;startSize=0;swimlaneHead=0;swimlaneBody=0;top=0;left=0;bottom=0;right=0;collapsible=0;dropTarget=0;fillColor=none;points=[[0,0.5],[1,0.5]];portConstraint=eastwest;rounded=0;fontColor=#393C56;strokeColor=#E07A5F;" vertex="1" parent="obOgJhC0-ivwSwMURxUH-63">
          <mxGeometry width="50" height="40" as="geometry" />
        </mxCell>
        <mxCell id="obOgJhC0-ivwSwMURxUH-65" value="" style="shape=partialRectangle;html=1;whiteSpace=wrap;connectable=0;overflow=hidden;fillColor=none;top=0;left=0;bottom=0;right=0;pointerEvents=1;rounded=0;fontColor=#393C56;strokeColor=#E07A5F;" vertex="1" parent="obOgJhC0-ivwSwMURxUH-64">
          <mxGeometry width="50" height="40" as="geometry">
            <mxRectangle width="50" height="40" as="alternateBounds" />
          </mxGeometry>
        </mxCell>
        <mxCell id="obOgJhC0-ivwSwMURxUH-66" style="edgeStyle=orthogonalEdgeStyle;curved=0;rounded=1;orthogonalLoop=1;jettySize=auto;html=1;entryX=0;entryY=0.5;entryDx=0;entryDy=0;fontColor=#393C56;strokeColor=#E07A5F;fillColor=#F2CC8F;" edge="1" parent="obOgJhC0-ivwSwMURxUH-1" source="obOgJhC0-ivwSwMURxUH-67" target="obOgJhC0-ivwSwMURxUH-71">
          <mxGeometry relative="1" as="geometry" />
        </mxCell>
        <mxCell id="obOgJhC0-ivwSwMURxUH-67" value="" style="shape=table;startSize=0;container=1;collapsible=0;childLayout=tableLayout;rounded=1;fontColor=#393C56;strokeColor=#E07A5F;fillColor=#F2CC8F;shadow=1;" vertex="1" parent="obOgJhC0-ivwSwMURxUH-1">
          <mxGeometry x="210" y="1710" width="50" height="40" as="geometry" />
        </mxCell>
        <mxCell id="obOgJhC0-ivwSwMURxUH-68" value="" style="shape=tableRow;horizontal=0;startSize=0;swimlaneHead=0;swimlaneBody=0;top=0;left=0;bottom=0;right=0;collapsible=0;dropTarget=0;fillColor=none;points=[[0,0.5],[1,0.5]];portConstraint=eastwest;rounded=0;fontColor=#393C56;strokeColor=#E07A5F;" vertex="1" parent="obOgJhC0-ivwSwMURxUH-67">
          <mxGeometry width="50" height="40" as="geometry" />
        </mxCell>
        <mxCell id="obOgJhC0-ivwSwMURxUH-69" value="" style="shape=partialRectangle;html=1;whiteSpace=wrap;connectable=0;overflow=hidden;fillColor=none;top=0;left=0;bottom=0;right=0;pointerEvents=1;rounded=0;fontColor=#393C56;strokeColor=#E07A5F;" vertex="1" parent="obOgJhC0-ivwSwMURxUH-68">
          <mxGeometry width="50" height="40" as="geometry">
            <mxRectangle width="50" height="40" as="alternateBounds" />
          </mxGeometry>
        </mxCell>
        <mxCell id="obOgJhC0-ivwSwMURxUH-70" value="" style="shape=table;startSize=0;container=1;collapsible=0;childLayout=tableLayout;rounded=1;fontColor=#393C56;strokeColor=#E07A5F;fillColor=#F2CC8F;shadow=1;" vertex="1" parent="obOgJhC0-ivwSwMURxUH-1">
          <mxGeometry x="300" y="1710" width="50" height="40" as="geometry" />
        </mxCell>
        <mxCell id="obOgJhC0-ivwSwMURxUH-71" value="" style="shape=tableRow;horizontal=0;startSize=0;swimlaneHead=0;swimlaneBody=0;top=0;left=0;bottom=0;right=0;collapsible=0;dropTarget=0;fillColor=none;points=[[0,0.5],[1,0.5]];portConstraint=eastwest;rounded=0;fontColor=#393C56;strokeColor=#E07A5F;" vertex="1" parent="obOgJhC0-ivwSwMURxUH-70">
          <mxGeometry width="50" height="40" as="geometry" />
        </mxCell>
        <mxCell id="obOgJhC0-ivwSwMURxUH-72" value="" style="shape=partialRectangle;html=1;whiteSpace=wrap;connectable=0;overflow=hidden;fillColor=none;top=0;left=0;bottom=0;right=0;pointerEvents=1;rounded=0;fontColor=#393C56;strokeColor=#E07A5F;" vertex="1" parent="obOgJhC0-ivwSwMURxUH-71">
          <mxGeometry width="50" height="40" as="geometry">
            <mxRectangle width="50" height="40" as="alternateBounds" />
          </mxGeometry>
        </mxCell>
        <mxCell id="obOgJhC0-ivwSwMURxUH-73" value="" style="shape=table;startSize=0;container=1;collapsible=0;childLayout=tableLayout;rounded=1;fontColor=#393C56;strokeColor=#E07A5F;fillColor=#F2CC8F;shadow=1;" vertex="1" parent="obOgJhC0-ivwSwMURxUH-1">
          <mxGeometry x="390" y="1710" width="50" height="40" as="geometry" />
        </mxCell>
        <mxCell id="obOgJhC0-ivwSwMURxUH-74" value="" style="shape=tableRow;horizontal=0;startSize=0;swimlaneHead=0;swimlaneBody=0;top=0;left=0;bottom=0;right=0;collapsible=0;dropTarget=0;fillColor=none;points=[[0,0.5],[1,0.5]];portConstraint=eastwest;rounded=0;fontColor=#393C56;strokeColor=#E07A5F;" vertex="1" parent="obOgJhC0-ivwSwMURxUH-73">
          <mxGeometry width="50" height="40" as="geometry" />
        </mxCell>
        <mxCell id="obOgJhC0-ivwSwMURxUH-75" value="" style="shape=partialRectangle;html=1;whiteSpace=wrap;connectable=0;overflow=hidden;fillColor=none;top=0;left=0;bottom=0;right=0;pointerEvents=1;rounded=0;fontColor=#393C56;strokeColor=#E07A5F;" vertex="1" parent="obOgJhC0-ivwSwMURxUH-74">
          <mxGeometry width="50" height="40" as="geometry">
            <mxRectangle width="50" height="40" as="alternateBounds" />
          </mxGeometry>
        </mxCell>
        <mxCell id="obOgJhC0-ivwSwMURxUH-76" value="" style="shape=table;startSize=0;container=1;collapsible=0;childLayout=tableLayout;rounded=1;fontColor=#393C56;strokeColor=#E07A5F;fillColor=#F2CC8F;shadow=1;" vertex="1" parent="obOgJhC0-ivwSwMURxUH-1">
          <mxGeometry x="480" y="1710" width="50" height="40" as="geometry" />
        </mxCell>
        <mxCell id="obOgJhC0-ivwSwMURxUH-77" value="" style="shape=tableRow;horizontal=0;startSize=0;swimlaneHead=0;swimlaneBody=0;top=0;left=0;bottom=0;right=0;collapsible=0;dropTarget=0;fillColor=none;points=[[0,0.5],[1,0.5]];portConstraint=eastwest;rounded=0;fontColor=#393C56;strokeColor=#E07A5F;" vertex="1" parent="obOgJhC0-ivwSwMURxUH-76">
          <mxGeometry width="50" height="40" as="geometry" />
        </mxCell>
        <mxCell id="obOgJhC0-ivwSwMURxUH-78" value="" style="shape=partialRectangle;html=1;whiteSpace=wrap;connectable=0;overflow=hidden;fillColor=none;top=0;left=0;bottom=0;right=0;pointerEvents=1;rounded=0;fontColor=#393C56;strokeColor=#E07A5F;" vertex="1" parent="obOgJhC0-ivwSwMURxUH-77">
          <mxGeometry width="50" height="40" as="geometry">
            <mxRectangle width="50" height="40" as="alternateBounds" />
          </mxGeometry>
        </mxCell>
        <mxCell id="obOgJhC0-ivwSwMURxUH-79" style="edgeStyle=orthogonalEdgeStyle;curved=0;rounded=1;orthogonalLoop=1;jettySize=auto;html=1;entryX=0;entryY=0.5;entryDx=0;entryDy=0;fontColor=#393C56;strokeColor=#E07A5F;fillColor=#F2CC8F;" edge="1" parent="obOgJhC0-ivwSwMURxUH-1" source="obOgJhC0-ivwSwMURxUH-64" target="obOgJhC0-ivwSwMURxUH-68">
          <mxGeometry relative="1" as="geometry" />
        </mxCell>
        <mxCell id="obOgJhC0-ivwSwMURxUH-80" style="edgeStyle=orthogonalEdgeStyle;curved=0;rounded=1;orthogonalLoop=1;jettySize=auto;html=1;entryX=0;entryY=0.5;entryDx=0;entryDy=0;fontColor=#393C56;strokeColor=#E07A5F;fillColor=#F2CC8F;" edge="1" parent="obOgJhC0-ivwSwMURxUH-1" source="obOgJhC0-ivwSwMURxUH-71" target="obOgJhC0-ivwSwMURxUH-74">
          <mxGeometry relative="1" as="geometry" />
        </mxCell>
        <mxCell id="obOgJhC0-ivwSwMURxUH-81" style="edgeStyle=orthogonalEdgeStyle;curved=0;rounded=1;orthogonalLoop=1;jettySize=auto;html=1;entryX=0;entryY=0.5;entryDx=0;entryDy=0;fontColor=#393C56;strokeColor=#E07A5F;fillColor=#F2CC8F;" edge="1" parent="obOgJhC0-ivwSwMURxUH-1" source="obOgJhC0-ivwSwMURxUH-74" target="obOgJhC0-ivwSwMURxUH-77">
          <mxGeometry relative="1" as="geometry" />
        </mxCell>
        <mxCell id="obOgJhC0-ivwSwMURxUH-82" value="" style="endArrow=classic;html=1;rounded=1;fontColor=#393C56;strokeColor=#E07A5F;fillColor=#F2CC8F;curved=0;entryX=0.463;entryY=-0.108;entryDx=0;entryDy=0;entryPerimeter=0;" edge="1" parent="obOgJhC0-ivwSwMURxUH-1" target="obOgJhC0-ivwSwMURxUH-64">
          <mxGeometry width="50" height="50" relative="1" as="geometry">
            <mxPoint x="133" y="1660" as="sourcePoint" />
            <mxPoint x="150" y="1610" as="targetPoint" />
          </mxGeometry>
        </mxCell>
        <mxCell id="obOgJhC0-ivwSwMURxUH-83" value="&lt;font style=&quot;font-size: 18px;&quot; face=&quot;Comic Sans MS&quot;&gt;&lt;b&gt;head&lt;/b&gt;&lt;/font&gt;" style="text;html=1;strokeColor=#999900;fillColor=#d5e8d4;align=center;verticalAlign=middle;whiteSpace=wrap;rounded=1;shadow=1;sketch=1;" vertex="1" parent="obOgJhC0-ivwSwMURxUH-1">
          <mxGeometry x="100" y="1630" width="60" height="30" as="geometry" />
        </mxCell>
        <mxCell id="obOgJhC0-ivwSwMURxUH-84" value="" style="endArrow=classic;html=1;rounded=0;shadow=1;sketch=1;fontFamily=Comic Sans MS;fontSize=18;curved=1;exitX=1.033;exitY=0.257;exitDx=0;exitDy=0;exitPerimeter=0;entryX=0;entryY=0.25;entryDx=0;entryDy=0;" edge="1" parent="obOgJhC0-ivwSwMURxUH-1" source="obOgJhC0-ivwSwMURxUH-77" target="obOgJhC0-ivwSwMURxUH-86">
          <mxGeometry width="50" height="50" relative="1" as="geometry">
            <mxPoint x="560" y="1730" as="sourcePoint" />
            <mxPoint x="630" y="1720" as="targetPoint" />
          </mxGeometry>
        </mxCell>
        <mxCell id="obOgJhC0-ivwSwMURxUH-85" style="edgeStyle=orthogonalEdgeStyle;curved=1;rounded=0;sketch=1;orthogonalLoop=1;jettySize=auto;html=1;entryX=1.002;entryY=0.853;entryDx=0;entryDy=0;entryPerimeter=0;shadow=1;fontFamily=Comic Sans MS;fontSize=18;" edge="1" parent="obOgJhC0-ivwSwMURxUH-1" source="obOgJhC0-ivwSwMURxUH-86" target="obOgJhC0-ivwSwMURxUH-77">
          <mxGeometry relative="1" as="geometry">
            <Array as="points">
              <mxPoint x="620" y="1744" />
              <mxPoint x="620" y="1744" />
            </Array>
          </mxGeometry>
        </mxCell>
        <mxCell id="obOgJhC0-ivwSwMURxUH-86" value="&lt;font style=&quot;font-size: 18px;&quot; face=&quot;Comic Sans MS&quot;&gt;&lt;b&gt;Thread-A&lt;/b&gt;&lt;/font&gt;" style="rounded=1;whiteSpace=wrap;html=1;shadow=1;fillColor=#d5e8d4;strokeColor=#82b366;" vertex="1" parent="obOgJhC0-ivwSwMURxUH-1">
          <mxGeometry x="640" y="1700" width="120" height="60" as="geometry" />
        </mxCell>
        <mxCell id="obOgJhC0-ivwSwMURxUH-87" value="&lt;b&gt;&lt;font color=&quot;#999900&quot;&gt;next&lt;/font&gt;&lt;/b&gt;" style="text;html=1;strokeColor=none;fillColor=none;align=center;verticalAlign=middle;whiteSpace=wrap;rounded=0;shadow=1;glass=0;sketch=1;fontFamily=Comic Sans MS;fontSize=18;" vertex="1" parent="obOgJhC0-ivwSwMURxUH-1">
          <mxGeometry x="550" y="1680" width="60" height="30" as="geometry" />
        </mxCell>
        <mxCell id="obOgJhC0-ivwSwMURxUH-88" value="&lt;b&gt;&lt;font color=&quot;#006666&quot;&gt;prev&lt;/font&gt;&lt;/b&gt;" style="text;html=1;strokeColor=none;fillColor=none;align=center;verticalAlign=middle;whiteSpace=wrap;rounded=0;shadow=1;fontFamily=Comic Sans MS;fontSize=18;" vertex="1" parent="obOgJhC0-ivwSwMURxUH-1">
          <mxGeometry x="565" y="1750" width="60" height="30" as="geometry" />
        </mxCell>
        <mxCell id="obOgJhC0-ivwSwMURxUH-89" style="edgeStyle=orthogonalEdgeStyle;curved=1;rounded=0;sketch=1;orthogonalLoop=1;jettySize=auto;html=1;entryX=0.5;entryY=0;entryDx=0;entryDy=0;shadow=1;fontFamily=Comic Sans MS;fontSize=18;" edge="1" parent="obOgJhC0-ivwSwMURxUH-1" source="obOgJhC0-ivwSwMURxUH-90" target="obOgJhC0-ivwSwMURxUH-86">
          <mxGeometry relative="1" as="geometry" />
        </mxCell>
        <mxCell id="obOgJhC0-ivwSwMURxUH-90" value="&lt;font style=&quot;font-size: 18px;&quot; face=&quot;Comic Sans MS&quot;&gt;&lt;b&gt;tail&lt;/b&gt;&lt;/font&gt;" style="text;html=1;strokeColor=#999900;fillColor=#d5e8d4;align=center;verticalAlign=middle;whiteSpace=wrap;rounded=1;shadow=1;sketch=1;" vertex="1" parent="obOgJhC0-ivwSwMURxUH-1">
          <mxGeometry x="670" y="1620" width="60" height="30" as="geometry" />
        </mxCell>
        <mxCell id="obOgJhC0-ivwSwMURxUH-91" value="&lt;b&gt;&lt;font color=&quot;#006666&quot;&gt;Thread-A竞争成功成为新tail&lt;/font&gt;&lt;/b&gt;" style="shape=callout;whiteSpace=wrap;html=1;perimeter=calloutPerimeter;rounded=1;shadow=1;glass=0;sketch=1;fontFamily=Comic Sans MS;fontSize=18;position2=0;fillColor=#ffe6cc;strokeColor=#d79b00;" vertex="1" parent="obOgJhC0-ivwSwMURxUH-1">
          <mxGeometry x="750" y="1040" width="250" height="90" as="geometry" />
        </mxCell>
        <mxCell id="obOgJhC0-ivwSwMURxUH-92" value="&lt;b&gt;&lt;font color=&quot;#006666&quot;&gt;2个线程同时竞争添加到表尾&lt;/font&gt;&lt;/b&gt;" style="rounded=1;whiteSpace=wrap;html=1;shadow=1;glass=0;sketch=1;fontFamily=Comic Sans MS;fontSize=18;strokeColor=#6c8ebf;fillColor=#dae8fc;" vertex="1" parent="obOgJhC0-ivwSwMURxUH-1">
          <mxGeometry x="530" y="330" width="260" height="70" as="geometry" />
        </mxCell>
        <mxCell id="obOgJhC0-ivwSwMURxUH-93" value="旧tail修改next" style="shape=callout;whiteSpace=wrap;html=1;perimeter=calloutPerimeter;rounded=1;shadow=1;glass=0;sketch=1;fontFamily=Comic Sans MS;fontSize=18;fontColor=#006666;strokeColor=#999900;fillColor=default;gradientColor=none;position2=0.43;" vertex="1" parent="obOgJhC0-ivwSwMURxUH-1">
          <mxGeometry x="450" y="1610" width="120" height="90" as="geometry" />
        </mxCell>
        <mxCell id="_iRbxKHwhL1LnWpxHjwd-0" value="&lt;b&gt;&lt;font color=&quot;#006666&quot;&gt;竞争失败，进入enq继续尝试添加到链表&lt;/font&gt;&lt;/b&gt;" style="shape=callout;whiteSpace=wrap;html=1;perimeter=calloutPerimeter;rounded=1;shadow=1;glass=0;sketch=1;fontFamily=Comic Sans MS;fontSize=18;strokeColor=#6c8ebf;fillColor=#dae8fc;position2=0;" vertex="1" parent="obOgJhC0-ivwSwMURxUH-1">
          <mxGeometry x="750" y="1290" width="320" height="90" as="geometry" />
        </mxCell>
      </root>
    </mxGraphModel>
  </diagram>
  <diagram id="vNVaPxmEPZkCfzSlMPsN" name="new-tail-update">
    <mxGraphModel dx="979" dy="550" grid="1" gridSize="10" guides="1" tooltips="1" connect="1" arrows="1" fold="1" page="1" pageScale="1" pageWidth="827" pageHeight="1169" background="#F4F1DE" math="0" shadow="0">
      <root>
        <mxCell id="0" />
        <mxCell id="1" parent="0" />
        <mxCell id="k4vfsh6spfzCN9NZeRVe-1" value="" style="shape=flexArrow;endArrow=classic;html=1;rounded=0;shadow=1;sketch=1;" parent="1" edge="1">
          <mxGeometry width="50" height="50" relative="1" as="geometry">
            <mxPoint x="354.5" y="760" as="sourcePoint" />
            <mxPoint x="355" y="990" as="targetPoint" />
          </mxGeometry>
        </mxCell>
        <mxCell id="k4vfsh6spfzCN9NZeRVe-2" value="" style="shape=table;startSize=0;container=1;collapsible=0;childLayout=tableLayout;rounded=1;fontColor=#393C56;strokeColor=#E07A5F;fillColor=#F2CC8F;shadow=1;" parent="1" vertex="1">
          <mxGeometry x="140" y="610" width="50" height="40" as="geometry" />
        </mxCell>
        <mxCell id="k4vfsh6spfzCN9NZeRVe-3" value="" style="shape=tableRow;horizontal=0;startSize=0;swimlaneHead=0;swimlaneBody=0;top=0;left=0;bottom=0;right=0;collapsible=0;dropTarget=0;fillColor=none;points=[[0,0.5],[1,0.5]];portConstraint=eastwest;rounded=0;fontColor=#393C56;strokeColor=#E07A5F;" parent="k4vfsh6spfzCN9NZeRVe-2" vertex="1">
          <mxGeometry width="50" height="40" as="geometry" />
        </mxCell>
        <mxCell id="k4vfsh6spfzCN9NZeRVe-4" value="" style="shape=partialRectangle;html=1;whiteSpace=wrap;connectable=0;overflow=hidden;fillColor=none;top=0;left=0;bottom=0;right=0;pointerEvents=1;rounded=0;fontColor=#393C56;strokeColor=#E07A5F;" parent="k4vfsh6spfzCN9NZeRVe-3" vertex="1">
          <mxGeometry width="50" height="40" as="geometry">
            <mxRectangle width="50" height="40" as="alternateBounds" />
          </mxGeometry>
        </mxCell>
        <mxCell id="k4vfsh6spfzCN9NZeRVe-5" style="edgeStyle=orthogonalEdgeStyle;curved=0;rounded=1;orthogonalLoop=1;jettySize=auto;html=1;entryX=0;entryY=0.5;entryDx=0;entryDy=0;fontColor=#393C56;strokeColor=#E07A5F;fillColor=#F2CC8F;" parent="1" source="k4vfsh6spfzCN9NZeRVe-6" target="k4vfsh6spfzCN9NZeRVe-10" edge="1">
          <mxGeometry relative="1" as="geometry" />
        </mxCell>
        <mxCell id="k4vfsh6spfzCN9NZeRVe-6" value="" style="shape=table;startSize=0;container=1;collapsible=0;childLayout=tableLayout;rounded=1;fontColor=#393C56;strokeColor=#E07A5F;fillColor=#F2CC8F;shadow=1;" parent="1" vertex="1">
          <mxGeometry x="240" y="610" width="50" height="40" as="geometry" />
        </mxCell>
        <mxCell id="k4vfsh6spfzCN9NZeRVe-7" value="" style="shape=tableRow;horizontal=0;startSize=0;swimlaneHead=0;swimlaneBody=0;top=0;left=0;bottom=0;right=0;collapsible=0;dropTarget=0;fillColor=none;points=[[0,0.5],[1,0.5]];portConstraint=eastwest;rounded=0;fontColor=#393C56;strokeColor=#E07A5F;" parent="k4vfsh6spfzCN9NZeRVe-6" vertex="1">
          <mxGeometry width="50" height="40" as="geometry" />
        </mxCell>
        <mxCell id="k4vfsh6spfzCN9NZeRVe-8" value="" style="shape=partialRectangle;html=1;whiteSpace=wrap;connectable=0;overflow=hidden;fillColor=none;top=0;left=0;bottom=0;right=0;pointerEvents=1;rounded=0;fontColor=#393C56;strokeColor=#E07A5F;" parent="k4vfsh6spfzCN9NZeRVe-7" vertex="1">
          <mxGeometry width="50" height="40" as="geometry">
            <mxRectangle width="50" height="40" as="alternateBounds" />
          </mxGeometry>
        </mxCell>
        <mxCell id="k4vfsh6spfzCN9NZeRVe-9" value="" style="shape=table;startSize=0;container=1;collapsible=0;childLayout=tableLayout;rounded=1;fontColor=#393C56;strokeColor=#E07A5F;fillColor=#F2CC8F;shadow=1;" parent="1" vertex="1">
          <mxGeometry x="330" y="610" width="50" height="40" as="geometry" />
        </mxCell>
        <mxCell id="k4vfsh6spfzCN9NZeRVe-10" value="" style="shape=tableRow;horizontal=0;startSize=0;swimlaneHead=0;swimlaneBody=0;top=0;left=0;bottom=0;right=0;collapsible=0;dropTarget=0;fillColor=none;points=[[0,0.5],[1,0.5]];portConstraint=eastwest;rounded=0;fontColor=#393C56;strokeColor=#E07A5F;" parent="k4vfsh6spfzCN9NZeRVe-9" vertex="1">
          <mxGeometry width="50" height="40" as="geometry" />
        </mxCell>
        <mxCell id="k4vfsh6spfzCN9NZeRVe-11" value="" style="shape=partialRectangle;html=1;whiteSpace=wrap;connectable=0;overflow=hidden;fillColor=none;top=0;left=0;bottom=0;right=0;pointerEvents=1;rounded=0;fontColor=#393C56;strokeColor=#E07A5F;" parent="k4vfsh6spfzCN9NZeRVe-10" vertex="1">
          <mxGeometry width="50" height="40" as="geometry">
            <mxRectangle width="50" height="40" as="alternateBounds" />
          </mxGeometry>
        </mxCell>
        <mxCell id="k4vfsh6spfzCN9NZeRVe-12" value="" style="shape=table;startSize=0;container=1;collapsible=0;childLayout=tableLayout;rounded=1;fontColor=#393C56;strokeColor=#E07A5F;fillColor=#F2CC8F;shadow=1;" parent="1" vertex="1">
          <mxGeometry x="420" y="610" width="50" height="40" as="geometry" />
        </mxCell>
        <mxCell id="k4vfsh6spfzCN9NZeRVe-13" value="" style="shape=tableRow;horizontal=0;startSize=0;swimlaneHead=0;swimlaneBody=0;top=0;left=0;bottom=0;right=0;collapsible=0;dropTarget=0;fillColor=none;points=[[0,0.5],[1,0.5]];portConstraint=eastwest;rounded=0;fontColor=#393C56;strokeColor=#E07A5F;" parent="k4vfsh6spfzCN9NZeRVe-12" vertex="1">
          <mxGeometry width="50" height="40" as="geometry" />
        </mxCell>
        <mxCell id="k4vfsh6spfzCN9NZeRVe-14" value="" style="shape=partialRectangle;html=1;whiteSpace=wrap;connectable=0;overflow=hidden;fillColor=none;top=0;left=0;bottom=0;right=0;pointerEvents=1;rounded=0;fontColor=#393C56;strokeColor=#E07A5F;" parent="k4vfsh6spfzCN9NZeRVe-13" vertex="1">
          <mxGeometry width="50" height="40" as="geometry">
            <mxRectangle width="50" height="40" as="alternateBounds" />
          </mxGeometry>
        </mxCell>
        <mxCell id="k4vfsh6spfzCN9NZeRVe-15" value="" style="shape=table;startSize=0;container=1;collapsible=0;childLayout=tableLayout;rounded=1;fontColor=#393C56;strokeColor=#E07A5F;fillColor=#F2CC8F;shadow=1;" parent="1" vertex="1">
          <mxGeometry x="510" y="610" width="50" height="40" as="geometry" />
        </mxCell>
        <mxCell id="k4vfsh6spfzCN9NZeRVe-16" value="" style="shape=tableRow;horizontal=0;startSize=0;swimlaneHead=0;swimlaneBody=0;top=0;left=0;bottom=0;right=0;collapsible=0;dropTarget=0;fillColor=none;points=[[0,0.5],[1,0.5]];portConstraint=eastwest;rounded=0;fontColor=#393C56;strokeColor=#E07A5F;" parent="k4vfsh6spfzCN9NZeRVe-15" vertex="1">
          <mxGeometry width="50" height="40" as="geometry" />
        </mxCell>
        <mxCell id="k4vfsh6spfzCN9NZeRVe-17" value="" style="shape=partialRectangle;html=1;whiteSpace=wrap;connectable=0;overflow=hidden;fillColor=none;top=0;left=0;bottom=0;right=0;pointerEvents=1;rounded=0;fontColor=#393C56;strokeColor=#E07A5F;" parent="k4vfsh6spfzCN9NZeRVe-16" vertex="1">
          <mxGeometry width="50" height="40" as="geometry">
            <mxRectangle width="50" height="40" as="alternateBounds" />
          </mxGeometry>
        </mxCell>
        <mxCell id="k4vfsh6spfzCN9NZeRVe-18" style="edgeStyle=orthogonalEdgeStyle;curved=0;rounded=1;orthogonalLoop=1;jettySize=auto;html=1;entryX=0;entryY=0.5;entryDx=0;entryDy=0;fontColor=#393C56;strokeColor=#E07A5F;fillColor=#F2CC8F;" parent="1" source="k4vfsh6spfzCN9NZeRVe-3" target="k4vfsh6spfzCN9NZeRVe-7" edge="1">
          <mxGeometry relative="1" as="geometry" />
        </mxCell>
        <mxCell id="k4vfsh6spfzCN9NZeRVe-19" style="edgeStyle=orthogonalEdgeStyle;curved=0;rounded=1;orthogonalLoop=1;jettySize=auto;html=1;entryX=0;entryY=0.5;entryDx=0;entryDy=0;fontColor=#393C56;strokeColor=#E07A5F;fillColor=#F2CC8F;" parent="1" source="k4vfsh6spfzCN9NZeRVe-10" target="k4vfsh6spfzCN9NZeRVe-13" edge="1">
          <mxGeometry relative="1" as="geometry" />
        </mxCell>
        <mxCell id="k4vfsh6spfzCN9NZeRVe-20" style="edgeStyle=orthogonalEdgeStyle;curved=0;rounded=1;orthogonalLoop=1;jettySize=auto;html=1;entryX=0;entryY=0.5;entryDx=0;entryDy=0;fontColor=#393C56;strokeColor=#E07A5F;fillColor=#F2CC8F;" parent="1" source="k4vfsh6spfzCN9NZeRVe-13" target="k4vfsh6spfzCN9NZeRVe-16" edge="1">
          <mxGeometry relative="1" as="geometry" />
        </mxCell>
        <mxCell id="k4vfsh6spfzCN9NZeRVe-21" value="" style="endArrow=classic;html=1;rounded=1;fontColor=#393C56;strokeColor=#E07A5F;fillColor=#F2CC8F;curved=0;entryX=0.463;entryY=-0.108;entryDx=0;entryDy=0;entryPerimeter=0;" parent="1" target="k4vfsh6spfzCN9NZeRVe-3" edge="1">
          <mxGeometry width="50" height="50" relative="1" as="geometry">
            <mxPoint x="163" y="560" as="sourcePoint" />
            <mxPoint x="180" y="510" as="targetPoint" />
          </mxGeometry>
        </mxCell>
        <mxCell id="k4vfsh6spfzCN9NZeRVe-22" value="&lt;font style=&quot;font-size: 18px;&quot; face=&quot;Comic Sans MS&quot;&gt;&lt;b&gt;head&lt;/b&gt;&lt;/font&gt;" style="text;html=1;strokeColor=#999900;fillColor=#d5e8d4;align=center;verticalAlign=middle;whiteSpace=wrap;rounded=1;shadow=1;glass=0;sketch=1;gradientColor=none;" parent="1" vertex="1">
          <mxGeometry x="130" y="530" width="60" height="30" as="geometry" />
        </mxCell>
        <mxCell id="k4vfsh6spfzCN9NZeRVe-23" style="edgeStyle=orthogonalEdgeStyle;curved=0;rounded=1;orthogonalLoop=1;jettySize=auto;html=1;entryX=0.5;entryY=0;entryDx=0;entryDy=0;entryPerimeter=0;fontFamily=Comic Sans MS;fontSize=18;fontColor=#393C56;strokeColor=#E07A5F;fillColor=#F2CC8F;strokeWidth=3;" parent="1" source="k4vfsh6spfzCN9NZeRVe-24" target="k4vfsh6spfzCN9NZeRVe-16" edge="1">
          <mxGeometry relative="1" as="geometry" />
        </mxCell>
        <mxCell id="PcjiXraznFZHLs05Bcgx-1" style="edgeStyle=orthogonalEdgeStyle;curved=1;rounded=0;sketch=1;orthogonalLoop=1;jettySize=auto;html=1;entryX=0;entryY=0.25;entryDx=0;entryDy=0;shadow=1;fontFamily=Comic Sans MS;fontSize=18;fontColor=#006666;dashed=1;strokeColor=#FF8000;" edge="1" parent="1" source="k4vfsh6spfzCN9NZeRVe-24" target="k4vfsh6spfzCN9NZeRVe-26">
          <mxGeometry relative="1" as="geometry" />
        </mxCell>
        <mxCell id="PcjiXraznFZHLs05Bcgx-2" style="edgeStyle=orthogonalEdgeStyle;curved=1;rounded=0;sketch=1;orthogonalLoop=1;jettySize=auto;html=1;entryX=0;entryY=0.5;entryDx=0;entryDy=0;shadow=1;fontFamily=Comic Sans MS;fontSize=18;fontColor=#006666;dashed=1;strokeColor=#FF8000;" edge="1" parent="1" source="k4vfsh6spfzCN9NZeRVe-24" target="k4vfsh6spfzCN9NZeRVe-31">
          <mxGeometry relative="1" as="geometry">
            <Array as="points">
              <mxPoint x="640" y="545" />
              <mxPoint x="640" y="620" />
              <mxPoint x="680" y="620" />
              <mxPoint x="680" y="615" />
            </Array>
          </mxGeometry>
        </mxCell>
        <mxCell id="k4vfsh6spfzCN9NZeRVe-24" value="&lt;font style=&quot;font-size: 18px;&quot; face=&quot;Comic Sans MS&quot;&gt;&lt;b&gt;tail&lt;/b&gt;&lt;/font&gt;" style="text;html=1;strokeColor=#999900;fillColor=#d5e8d4;align=center;verticalAlign=middle;whiteSpace=wrap;rounded=1;shadow=1;sketch=1;" parent="1" vertex="1">
          <mxGeometry x="505" y="530" width="65" height="30" as="geometry" />
        </mxCell>
        <mxCell id="k4vfsh6spfzCN9NZeRVe-26" value="&lt;font style=&quot;font-size: 18px;&quot; face=&quot;Comic Sans MS&quot;&gt;&lt;b&gt;Thread-A&lt;/b&gt;&lt;/font&gt;" style="rounded=1;whiteSpace=wrap;html=1;shadow=1;fillColor=#d5e8d4;strokeColor=#82b366;" parent="1" vertex="1">
          <mxGeometry x="690" y="450" width="120" height="60" as="geometry" />
        </mxCell>
        <mxCell id="k4vfsh6spfzCN9NZeRVe-31" value="&lt;font style=&quot;font-size: 18px;&quot; face=&quot;Comic Sans MS&quot;&gt;&lt;b&gt;Thread-B&lt;/b&gt;&lt;/font&gt;" style="rounded=1;whiteSpace=wrap;html=1;shadow=1;fillColor=#d5e8d4;strokeColor=#82b366;" parent="1" vertex="1">
          <mxGeometry x="690" y="585" width="120" height="60" as="geometry" />
        </mxCell>
        <mxCell id="k4vfsh6spfzCN9NZeRVe-35" value="&lt;font color=&quot;#006666&quot;&gt;&lt;b&gt;Thread-A成功&lt;/b&gt;&lt;/font&gt;" style="text;html=1;align=center;verticalAlign=middle;whiteSpace=wrap;rounded=0;shadow=1;fontFamily=Comic Sans MS;fontSize=18;glass=1;sketch=1;fillColor=#d5e8d4;strokeColor=#999900;" parent="1" vertex="1">
          <mxGeometry x="380" y="850" width="140" height="60" as="geometry" />
        </mxCell>
        <mxCell id="k4vfsh6spfzCN9NZeRVe-36" value="" style="shape=table;startSize=0;container=1;collapsible=0;childLayout=tableLayout;rounded=1;fontColor=#393C56;strokeColor=#E07A5F;fillColor=#F2CC8F;shadow=1;" parent="1" vertex="1">
          <mxGeometry x="90" y="1240" width="50" height="40" as="geometry" />
        </mxCell>
        <mxCell id="k4vfsh6spfzCN9NZeRVe-37" value="" style="shape=tableRow;horizontal=0;startSize=0;swimlaneHead=0;swimlaneBody=0;top=0;left=0;bottom=0;right=0;collapsible=0;dropTarget=0;fillColor=none;points=[[0,0.5],[1,0.5]];portConstraint=eastwest;rounded=0;fontColor=#393C56;strokeColor=#E07A5F;" parent="k4vfsh6spfzCN9NZeRVe-36" vertex="1">
          <mxGeometry width="50" height="40" as="geometry" />
        </mxCell>
        <mxCell id="k4vfsh6spfzCN9NZeRVe-38" value="" style="shape=partialRectangle;html=1;whiteSpace=wrap;connectable=0;overflow=hidden;fillColor=none;top=0;left=0;bottom=0;right=0;pointerEvents=1;rounded=0;fontColor=#393C56;strokeColor=#E07A5F;" parent="k4vfsh6spfzCN9NZeRVe-37" vertex="1">
          <mxGeometry width="50" height="40" as="geometry">
            <mxRectangle width="50" height="40" as="alternateBounds" />
          </mxGeometry>
        </mxCell>
        <mxCell id="k4vfsh6spfzCN9NZeRVe-39" style="edgeStyle=orthogonalEdgeStyle;curved=0;rounded=1;orthogonalLoop=1;jettySize=auto;html=1;entryX=0;entryY=0.5;entryDx=0;entryDy=0;fontColor=#393C56;strokeColor=#E07A5F;fillColor=#F2CC8F;" parent="1" source="k4vfsh6spfzCN9NZeRVe-40" target="k4vfsh6spfzCN9NZeRVe-44" edge="1">
          <mxGeometry relative="1" as="geometry" />
        </mxCell>
        <mxCell id="k4vfsh6spfzCN9NZeRVe-40" value="" style="shape=table;startSize=0;container=1;collapsible=0;childLayout=tableLayout;rounded=1;fontColor=#393C56;strokeColor=#E07A5F;fillColor=#F2CC8F;shadow=1;" parent="1" vertex="1">
          <mxGeometry x="190" y="1240" width="50" height="40" as="geometry" />
        </mxCell>
        <mxCell id="k4vfsh6spfzCN9NZeRVe-41" value="" style="shape=tableRow;horizontal=0;startSize=0;swimlaneHead=0;swimlaneBody=0;top=0;left=0;bottom=0;right=0;collapsible=0;dropTarget=0;fillColor=none;points=[[0,0.5],[1,0.5]];portConstraint=eastwest;rounded=0;fontColor=#393C56;strokeColor=#E07A5F;" parent="k4vfsh6spfzCN9NZeRVe-40" vertex="1">
          <mxGeometry width="50" height="40" as="geometry" />
        </mxCell>
        <mxCell id="k4vfsh6spfzCN9NZeRVe-42" value="" style="shape=partialRectangle;html=1;whiteSpace=wrap;connectable=0;overflow=hidden;fillColor=none;top=0;left=0;bottom=0;right=0;pointerEvents=1;rounded=0;fontColor=#393C56;strokeColor=#E07A5F;" parent="k4vfsh6spfzCN9NZeRVe-41" vertex="1">
          <mxGeometry width="50" height="40" as="geometry">
            <mxRectangle width="50" height="40" as="alternateBounds" />
          </mxGeometry>
        </mxCell>
        <mxCell id="k4vfsh6spfzCN9NZeRVe-43" value="" style="shape=table;startSize=0;container=1;collapsible=0;childLayout=tableLayout;rounded=1;fontColor=#393C56;strokeColor=#E07A5F;fillColor=#F2CC8F;shadow=1;" parent="1" vertex="1">
          <mxGeometry x="280" y="1240" width="50" height="40" as="geometry" />
        </mxCell>
        <mxCell id="k4vfsh6spfzCN9NZeRVe-44" value="" style="shape=tableRow;horizontal=0;startSize=0;swimlaneHead=0;swimlaneBody=0;top=0;left=0;bottom=0;right=0;collapsible=0;dropTarget=0;fillColor=none;points=[[0,0.5],[1,0.5]];portConstraint=eastwest;rounded=0;fontColor=#393C56;strokeColor=#E07A5F;" parent="k4vfsh6spfzCN9NZeRVe-43" vertex="1">
          <mxGeometry width="50" height="40" as="geometry" />
        </mxCell>
        <mxCell id="k4vfsh6spfzCN9NZeRVe-45" value="" style="shape=partialRectangle;html=1;whiteSpace=wrap;connectable=0;overflow=hidden;fillColor=none;top=0;left=0;bottom=0;right=0;pointerEvents=1;rounded=0;fontColor=#393C56;strokeColor=#E07A5F;" parent="k4vfsh6spfzCN9NZeRVe-44" vertex="1">
          <mxGeometry width="50" height="40" as="geometry">
            <mxRectangle width="50" height="40" as="alternateBounds" />
          </mxGeometry>
        </mxCell>
        <mxCell id="k4vfsh6spfzCN9NZeRVe-46" value="" style="shape=table;startSize=0;container=1;collapsible=0;childLayout=tableLayout;rounded=1;fontColor=#393C56;strokeColor=#E07A5F;fillColor=#F2CC8F;shadow=1;" parent="1" vertex="1">
          <mxGeometry x="370" y="1240" width="50" height="40" as="geometry" />
        </mxCell>
        <mxCell id="k4vfsh6spfzCN9NZeRVe-47" value="" style="shape=tableRow;horizontal=0;startSize=0;swimlaneHead=0;swimlaneBody=0;top=0;left=0;bottom=0;right=0;collapsible=0;dropTarget=0;fillColor=none;points=[[0,0.5],[1,0.5]];portConstraint=eastwest;rounded=0;fontColor=#393C56;strokeColor=#E07A5F;" parent="k4vfsh6spfzCN9NZeRVe-46" vertex="1">
          <mxGeometry width="50" height="40" as="geometry" />
        </mxCell>
        <mxCell id="k4vfsh6spfzCN9NZeRVe-48" value="" style="shape=partialRectangle;html=1;whiteSpace=wrap;connectable=0;overflow=hidden;fillColor=none;top=0;left=0;bottom=0;right=0;pointerEvents=1;rounded=0;fontColor=#393C56;strokeColor=#E07A5F;" parent="k4vfsh6spfzCN9NZeRVe-47" vertex="1">
          <mxGeometry width="50" height="40" as="geometry">
            <mxRectangle width="50" height="40" as="alternateBounds" />
          </mxGeometry>
        </mxCell>
        <mxCell id="k4vfsh6spfzCN9NZeRVe-49" value="" style="shape=table;startSize=0;container=1;collapsible=0;childLayout=tableLayout;rounded=1;fontColor=#393C56;strokeColor=#E07A5F;fillColor=#F2CC8F;shadow=1;" parent="1" vertex="1">
          <mxGeometry x="460" y="1240" width="50" height="40" as="geometry" />
        </mxCell>
        <mxCell id="k4vfsh6spfzCN9NZeRVe-50" value="" style="shape=tableRow;horizontal=0;startSize=0;swimlaneHead=0;swimlaneBody=0;top=0;left=0;bottom=0;right=0;collapsible=0;dropTarget=0;fillColor=none;points=[[0,0.5],[1,0.5]];portConstraint=eastwest;rounded=0;fontColor=#393C56;strokeColor=#E07A5F;" parent="k4vfsh6spfzCN9NZeRVe-49" vertex="1">
          <mxGeometry width="50" height="40" as="geometry" />
        </mxCell>
        <mxCell id="k4vfsh6spfzCN9NZeRVe-51" value="" style="shape=partialRectangle;html=1;whiteSpace=wrap;connectable=0;overflow=hidden;fillColor=none;top=0;left=0;bottom=0;right=0;pointerEvents=1;rounded=0;fontColor=#393C56;strokeColor=#E07A5F;" parent="k4vfsh6spfzCN9NZeRVe-50" vertex="1">
          <mxGeometry width="50" height="40" as="geometry">
            <mxRectangle width="50" height="40" as="alternateBounds" />
          </mxGeometry>
        </mxCell>
        <mxCell id="k4vfsh6spfzCN9NZeRVe-52" style="edgeStyle=orthogonalEdgeStyle;curved=0;rounded=1;orthogonalLoop=1;jettySize=auto;html=1;entryX=0;entryY=0.5;entryDx=0;entryDy=0;fontColor=#393C56;strokeColor=#E07A5F;fillColor=#F2CC8F;" parent="1" source="k4vfsh6spfzCN9NZeRVe-37" target="k4vfsh6spfzCN9NZeRVe-41" edge="1">
          <mxGeometry relative="1" as="geometry" />
        </mxCell>
        <mxCell id="k4vfsh6spfzCN9NZeRVe-53" style="edgeStyle=orthogonalEdgeStyle;curved=0;rounded=1;orthogonalLoop=1;jettySize=auto;html=1;entryX=0;entryY=0.5;entryDx=0;entryDy=0;fontColor=#393C56;strokeColor=#E07A5F;fillColor=#F2CC8F;" parent="1" source="k4vfsh6spfzCN9NZeRVe-44" target="k4vfsh6spfzCN9NZeRVe-47" edge="1">
          <mxGeometry relative="1" as="geometry" />
        </mxCell>
        <mxCell id="k4vfsh6spfzCN9NZeRVe-54" style="edgeStyle=orthogonalEdgeStyle;curved=0;rounded=1;orthogonalLoop=1;jettySize=auto;html=1;entryX=0;entryY=0.5;entryDx=0;entryDy=0;fontColor=#393C56;strokeColor=#E07A5F;fillColor=#F2CC8F;" parent="1" source="k4vfsh6spfzCN9NZeRVe-47" target="k4vfsh6spfzCN9NZeRVe-50" edge="1">
          <mxGeometry relative="1" as="geometry" />
        </mxCell>
        <mxCell id="k4vfsh6spfzCN9NZeRVe-55" value="" style="endArrow=classic;html=1;rounded=1;fontColor=#393C56;strokeColor=#E07A5F;fillColor=#F2CC8F;curved=0;entryX=0.463;entryY=-0.108;entryDx=0;entryDy=0;entryPerimeter=0;" parent="1" target="k4vfsh6spfzCN9NZeRVe-37" edge="1">
          <mxGeometry width="50" height="50" relative="1" as="geometry">
            <mxPoint x="113" y="1190" as="sourcePoint" />
            <mxPoint x="130" y="1140" as="targetPoint" />
          </mxGeometry>
        </mxCell>
        <mxCell id="k4vfsh6spfzCN9NZeRVe-56" value="&lt;font style=&quot;font-size: 18px;&quot; face=&quot;Comic Sans MS&quot;&gt;&lt;b&gt;head&lt;/b&gt;&lt;/font&gt;" style="text;html=1;strokeColor=#999900;fillColor=#d5e8d4;align=center;verticalAlign=middle;whiteSpace=wrap;rounded=1;shadow=1;sketch=1;" parent="1" vertex="1">
          <mxGeometry x="80" y="1160" width="60" height="30" as="geometry" />
        </mxCell>
        <mxCell id="k4vfsh6spfzCN9NZeRVe-65" style="edgeStyle=orthogonalEdgeStyle;curved=1;rounded=0;sketch=1;orthogonalLoop=1;jettySize=auto;html=1;entryX=0.5;entryY=0;entryDx=0;entryDy=0;shadow=1;fontFamily=Comic Sans MS;fontSize=18;strokeColor=#006600;strokeWidth=3;" parent="1" source="k4vfsh6spfzCN9NZeRVe-58" target="k4vfsh6spfzCN9NZeRVe-60" edge="1">
          <mxGeometry relative="1" as="geometry" />
        </mxCell>
        <mxCell id="k4vfsh6spfzCN9NZeRVe-58" value="&lt;font style=&quot;font-size: 18px;&quot; face=&quot;Comic Sans MS&quot;&gt;&lt;b&gt;tail&lt;/b&gt;&lt;/font&gt;" style="text;html=1;strokeColor=#999900;fillColor=#d5e8d4;align=center;verticalAlign=middle;whiteSpace=wrap;rounded=1;shadow=1;sketch=1;" parent="1" vertex="1">
          <mxGeometry x="655" y="1140" width="60" height="30" as="geometry" />
        </mxCell>
        <mxCell id="k4vfsh6spfzCN9NZeRVe-60" value="&lt;font style=&quot;font-size: 18px;&quot; face=&quot;Comic Sans MS&quot;&gt;&lt;b&gt;Thread-A&lt;/b&gt;&lt;/font&gt;" style="rounded=1;whiteSpace=wrap;html=1;shadow=1;fillColor=#d5e8d4;strokeColor=#82b366;" parent="1" vertex="1">
          <mxGeometry x="625" y="1220" width="120" height="60" as="geometry" />
        </mxCell>
        <mxCell id="k4vfsh6spfzCN9NZeRVe-66" value="" style="shape=flexArrow;endArrow=classic;html=1;rounded=0;shadow=1;sketch=1;" parent="1" edge="1">
          <mxGeometry width="50" height="50" relative="1" as="geometry">
            <mxPoint x="355" y="1330" as="sourcePoint" />
            <mxPoint x="355" y="1595" as="targetPoint" />
          </mxGeometry>
        </mxCell>
        <mxCell id="k4vfsh6spfzCN9NZeRVe-67" value="" style="shape=table;startSize=0;container=1;collapsible=0;childLayout=tableLayout;rounded=1;fontColor=#393C56;strokeColor=#E07A5F;fillColor=#F2CC8F;shadow=1;" parent="1" vertex="1">
          <mxGeometry x="110" y="1710" width="50" height="40" as="geometry" />
        </mxCell>
        <mxCell id="k4vfsh6spfzCN9NZeRVe-68" value="" style="shape=tableRow;horizontal=0;startSize=0;swimlaneHead=0;swimlaneBody=0;top=0;left=0;bottom=0;right=0;collapsible=0;dropTarget=0;fillColor=none;points=[[0,0.5],[1,0.5]];portConstraint=eastwest;rounded=0;fontColor=#393C56;strokeColor=#E07A5F;" parent="k4vfsh6spfzCN9NZeRVe-67" vertex="1">
          <mxGeometry width="50" height="40" as="geometry" />
        </mxCell>
        <mxCell id="k4vfsh6spfzCN9NZeRVe-69" value="" style="shape=partialRectangle;html=1;whiteSpace=wrap;connectable=0;overflow=hidden;fillColor=none;top=0;left=0;bottom=0;right=0;pointerEvents=1;rounded=0;fontColor=#393C56;strokeColor=#E07A5F;" parent="k4vfsh6spfzCN9NZeRVe-68" vertex="1">
          <mxGeometry width="50" height="40" as="geometry">
            <mxRectangle width="50" height="40" as="alternateBounds" />
          </mxGeometry>
        </mxCell>
        <mxCell id="k4vfsh6spfzCN9NZeRVe-70" style="edgeStyle=orthogonalEdgeStyle;curved=0;rounded=1;orthogonalLoop=1;jettySize=auto;html=1;entryX=0;entryY=0.5;entryDx=0;entryDy=0;fontColor=#393C56;strokeColor=#E07A5F;fillColor=#F2CC8F;" parent="1" source="k4vfsh6spfzCN9NZeRVe-71" target="k4vfsh6spfzCN9NZeRVe-75" edge="1">
          <mxGeometry relative="1" as="geometry" />
        </mxCell>
        <mxCell id="k4vfsh6spfzCN9NZeRVe-71" value="" style="shape=table;startSize=0;container=1;collapsible=0;childLayout=tableLayout;rounded=1;fontColor=#393C56;strokeColor=#E07A5F;fillColor=#F2CC8F;shadow=1;" parent="1" vertex="1">
          <mxGeometry x="210" y="1710" width="50" height="40" as="geometry" />
        </mxCell>
        <mxCell id="k4vfsh6spfzCN9NZeRVe-72" value="" style="shape=tableRow;horizontal=0;startSize=0;swimlaneHead=0;swimlaneBody=0;top=0;left=0;bottom=0;right=0;collapsible=0;dropTarget=0;fillColor=none;points=[[0,0.5],[1,0.5]];portConstraint=eastwest;rounded=0;fontColor=#393C56;strokeColor=#E07A5F;" parent="k4vfsh6spfzCN9NZeRVe-71" vertex="1">
          <mxGeometry width="50" height="40" as="geometry" />
        </mxCell>
        <mxCell id="k4vfsh6spfzCN9NZeRVe-73" value="" style="shape=partialRectangle;html=1;whiteSpace=wrap;connectable=0;overflow=hidden;fillColor=none;top=0;left=0;bottom=0;right=0;pointerEvents=1;rounded=0;fontColor=#393C56;strokeColor=#E07A5F;" parent="k4vfsh6spfzCN9NZeRVe-72" vertex="1">
          <mxGeometry width="50" height="40" as="geometry">
            <mxRectangle width="50" height="40" as="alternateBounds" />
          </mxGeometry>
        </mxCell>
        <mxCell id="k4vfsh6spfzCN9NZeRVe-74" value="" style="shape=table;startSize=0;container=1;collapsible=0;childLayout=tableLayout;rounded=1;fontColor=#393C56;strokeColor=#E07A5F;fillColor=#F2CC8F;shadow=1;" parent="1" vertex="1">
          <mxGeometry x="300" y="1710" width="50" height="40" as="geometry" />
        </mxCell>
        <mxCell id="k4vfsh6spfzCN9NZeRVe-75" value="" style="shape=tableRow;horizontal=0;startSize=0;swimlaneHead=0;swimlaneBody=0;top=0;left=0;bottom=0;right=0;collapsible=0;dropTarget=0;fillColor=none;points=[[0,0.5],[1,0.5]];portConstraint=eastwest;rounded=0;fontColor=#393C56;strokeColor=#E07A5F;" parent="k4vfsh6spfzCN9NZeRVe-74" vertex="1">
          <mxGeometry width="50" height="40" as="geometry" />
        </mxCell>
        <mxCell id="k4vfsh6spfzCN9NZeRVe-76" value="" style="shape=partialRectangle;html=1;whiteSpace=wrap;connectable=0;overflow=hidden;fillColor=none;top=0;left=0;bottom=0;right=0;pointerEvents=1;rounded=0;fontColor=#393C56;strokeColor=#E07A5F;" parent="k4vfsh6spfzCN9NZeRVe-75" vertex="1">
          <mxGeometry width="50" height="40" as="geometry">
            <mxRectangle width="50" height="40" as="alternateBounds" />
          </mxGeometry>
        </mxCell>
        <mxCell id="k4vfsh6spfzCN9NZeRVe-77" value="" style="shape=table;startSize=0;container=1;collapsible=0;childLayout=tableLayout;rounded=1;fontColor=#393C56;strokeColor=#E07A5F;fillColor=#F2CC8F;shadow=1;" parent="1" vertex="1">
          <mxGeometry x="390" y="1710" width="50" height="40" as="geometry" />
        </mxCell>
        <mxCell id="k4vfsh6spfzCN9NZeRVe-78" value="" style="shape=tableRow;horizontal=0;startSize=0;swimlaneHead=0;swimlaneBody=0;top=0;left=0;bottom=0;right=0;collapsible=0;dropTarget=0;fillColor=none;points=[[0,0.5],[1,0.5]];portConstraint=eastwest;rounded=0;fontColor=#393C56;strokeColor=#E07A5F;" parent="k4vfsh6spfzCN9NZeRVe-77" vertex="1">
          <mxGeometry width="50" height="40" as="geometry" />
        </mxCell>
        <mxCell id="k4vfsh6spfzCN9NZeRVe-79" value="" style="shape=partialRectangle;html=1;whiteSpace=wrap;connectable=0;overflow=hidden;fillColor=none;top=0;left=0;bottom=0;right=0;pointerEvents=1;rounded=0;fontColor=#393C56;strokeColor=#E07A5F;" parent="k4vfsh6spfzCN9NZeRVe-78" vertex="1">
          <mxGeometry width="50" height="40" as="geometry">
            <mxRectangle width="50" height="40" as="alternateBounds" />
          </mxGeometry>
        </mxCell>
        <mxCell id="k4vfsh6spfzCN9NZeRVe-80" value="" style="shape=table;startSize=0;container=1;collapsible=0;childLayout=tableLayout;rounded=1;fontColor=#393C56;strokeColor=#E07A5F;fillColor=#F2CC8F;shadow=1;" parent="1" vertex="1">
          <mxGeometry x="480" y="1710" width="50" height="40" as="geometry" />
        </mxCell>
        <mxCell id="k4vfsh6spfzCN9NZeRVe-81" value="" style="shape=tableRow;horizontal=0;startSize=0;swimlaneHead=0;swimlaneBody=0;top=0;left=0;bottom=0;right=0;collapsible=0;dropTarget=0;fillColor=none;points=[[0,0.5],[1,0.5]];portConstraint=eastwest;rounded=0;fontColor=#393C56;strokeColor=#E07A5F;" parent="k4vfsh6spfzCN9NZeRVe-80" vertex="1">
          <mxGeometry width="50" height="40" as="geometry" />
        </mxCell>
        <mxCell id="k4vfsh6spfzCN9NZeRVe-82" value="" style="shape=partialRectangle;html=1;whiteSpace=wrap;connectable=0;overflow=hidden;fillColor=none;top=0;left=0;bottom=0;right=0;pointerEvents=1;rounded=0;fontColor=#393C56;strokeColor=#E07A5F;" parent="k4vfsh6spfzCN9NZeRVe-81" vertex="1">
          <mxGeometry width="50" height="40" as="geometry">
            <mxRectangle width="50" height="40" as="alternateBounds" />
          </mxGeometry>
        </mxCell>
        <mxCell id="k4vfsh6spfzCN9NZeRVe-83" style="edgeStyle=orthogonalEdgeStyle;curved=0;rounded=1;orthogonalLoop=1;jettySize=auto;html=1;entryX=0;entryY=0.5;entryDx=0;entryDy=0;fontColor=#393C56;strokeColor=#E07A5F;fillColor=#F2CC8F;" parent="1" source="k4vfsh6spfzCN9NZeRVe-68" target="k4vfsh6spfzCN9NZeRVe-72" edge="1">
          <mxGeometry relative="1" as="geometry" />
        </mxCell>
        <mxCell id="k4vfsh6spfzCN9NZeRVe-84" style="edgeStyle=orthogonalEdgeStyle;curved=0;rounded=1;orthogonalLoop=1;jettySize=auto;html=1;entryX=0;entryY=0.5;entryDx=0;entryDy=0;fontColor=#393C56;strokeColor=#E07A5F;fillColor=#F2CC8F;" parent="1" source="k4vfsh6spfzCN9NZeRVe-75" target="k4vfsh6spfzCN9NZeRVe-78" edge="1">
          <mxGeometry relative="1" as="geometry" />
        </mxCell>
        <mxCell id="k4vfsh6spfzCN9NZeRVe-85" style="edgeStyle=orthogonalEdgeStyle;curved=0;rounded=1;orthogonalLoop=1;jettySize=auto;html=1;entryX=0;entryY=0.5;entryDx=0;entryDy=0;fontColor=#393C56;strokeColor=#E07A5F;fillColor=#F2CC8F;" parent="1" source="k4vfsh6spfzCN9NZeRVe-78" target="k4vfsh6spfzCN9NZeRVe-81" edge="1">
          <mxGeometry relative="1" as="geometry" />
        </mxCell>
        <mxCell id="k4vfsh6spfzCN9NZeRVe-86" value="" style="endArrow=classic;html=1;rounded=1;fontColor=#393C56;strokeColor=#E07A5F;fillColor=#F2CC8F;curved=0;entryX=0.463;entryY=-0.108;entryDx=0;entryDy=0;entryPerimeter=0;" parent="1" target="k4vfsh6spfzCN9NZeRVe-68" edge="1">
          <mxGeometry width="50" height="50" relative="1" as="geometry">
            <mxPoint x="133" y="1660" as="sourcePoint" />
            <mxPoint x="150" y="1610" as="targetPoint" />
          </mxGeometry>
        </mxCell>
        <mxCell id="k4vfsh6spfzCN9NZeRVe-87" value="&lt;font style=&quot;font-size: 18px;&quot; face=&quot;Comic Sans MS&quot;&gt;&lt;b&gt;head&lt;/b&gt;&lt;/font&gt;" style="text;html=1;strokeColor=#999900;fillColor=#d5e8d4;align=center;verticalAlign=middle;whiteSpace=wrap;rounded=1;shadow=1;sketch=1;" parent="1" vertex="1">
          <mxGeometry x="100" y="1630" width="60" height="30" as="geometry" />
        </mxCell>
        <mxCell id="k4vfsh6spfzCN9NZeRVe-88" value="" style="endArrow=classic;html=1;rounded=0;shadow=1;sketch=1;fontFamily=Comic Sans MS;fontSize=18;curved=1;exitX=1.033;exitY=0.257;exitDx=0;exitDy=0;exitPerimeter=0;entryX=0;entryY=0.25;entryDx=0;entryDy=0;" parent="1" source="k4vfsh6spfzCN9NZeRVe-81" target="k4vfsh6spfzCN9NZeRVe-89" edge="1">
          <mxGeometry width="50" height="50" relative="1" as="geometry">
            <mxPoint x="560" y="1730" as="sourcePoint" />
            <mxPoint x="630" y="1720" as="targetPoint" />
          </mxGeometry>
        </mxCell>
        <mxCell id="k4vfsh6spfzCN9NZeRVe-91" style="edgeStyle=orthogonalEdgeStyle;curved=1;rounded=0;sketch=1;orthogonalLoop=1;jettySize=auto;html=1;entryX=1.002;entryY=0.853;entryDx=0;entryDy=0;entryPerimeter=0;shadow=1;fontFamily=Comic Sans MS;fontSize=18;" parent="1" source="k4vfsh6spfzCN9NZeRVe-89" target="k4vfsh6spfzCN9NZeRVe-81" edge="1">
          <mxGeometry relative="1" as="geometry">
            <Array as="points">
              <mxPoint x="620" y="1744" />
              <mxPoint x="620" y="1744" />
            </Array>
          </mxGeometry>
        </mxCell>
        <mxCell id="k4vfsh6spfzCN9NZeRVe-89" value="&lt;font style=&quot;font-size: 18px;&quot; face=&quot;Comic Sans MS&quot;&gt;&lt;b&gt;Thread-A&lt;/b&gt;&lt;/font&gt;" style="rounded=1;whiteSpace=wrap;html=1;shadow=1;fillColor=#d5e8d4;strokeColor=#82b366;" parent="1" vertex="1">
          <mxGeometry x="640" y="1700" width="120" height="60" as="geometry" />
        </mxCell>
        <mxCell id="k4vfsh6spfzCN9NZeRVe-90" value="&lt;b&gt;&lt;font color=&quot;#999900&quot;&gt;next&lt;/font&gt;&lt;/b&gt;" style="text;html=1;strokeColor=none;fillColor=none;align=center;verticalAlign=middle;whiteSpace=wrap;rounded=0;shadow=1;glass=0;sketch=1;fontFamily=Comic Sans MS;fontSize=18;" parent="1" vertex="1">
          <mxGeometry x="550" y="1680" width="60" height="30" as="geometry" />
        </mxCell>
        <mxCell id="k4vfsh6spfzCN9NZeRVe-92" value="&lt;b&gt;&lt;font color=&quot;#999900&quot;&gt;prev&lt;/font&gt;&lt;/b&gt;" style="text;html=1;strokeColor=none;fillColor=none;align=center;verticalAlign=middle;whiteSpace=wrap;rounded=0;shadow=1;fontFamily=Comic Sans MS;fontSize=18;" parent="1" vertex="1">
          <mxGeometry x="560" y="1750" width="60" height="30" as="geometry" />
        </mxCell>
        <mxCell id="k4vfsh6spfzCN9NZeRVe-94" style="edgeStyle=orthogonalEdgeStyle;curved=1;rounded=0;sketch=1;orthogonalLoop=1;jettySize=auto;html=1;entryX=0.5;entryY=0;entryDx=0;entryDy=0;shadow=1;fontFamily=Comic Sans MS;fontSize=18;strokeWidth=3;strokeColor=#006600;" parent="1" source="k4vfsh6spfzCN9NZeRVe-93" target="k4vfsh6spfzCN9NZeRVe-89" edge="1">
          <mxGeometry relative="1" as="geometry" />
        </mxCell>
        <mxCell id="k4vfsh6spfzCN9NZeRVe-93" value="&lt;font style=&quot;font-size: 18px;&quot; face=&quot;Comic Sans MS&quot;&gt;&lt;b&gt;tail&lt;/b&gt;&lt;/font&gt;" style="text;html=1;strokeColor=#999900;fillColor=#d5e8d4;align=center;verticalAlign=middle;whiteSpace=wrap;rounded=1;shadow=1;sketch=1;" parent="1" vertex="1">
          <mxGeometry x="670" y="1620" width="60" height="30" as="geometry" />
        </mxCell>
        <mxCell id="k4vfsh6spfzCN9NZeRVe-95" value="&lt;b&gt;&lt;font color=&quot;#006666&quot;&gt;Thread-A竞争成功成为新tail&lt;/font&gt;&lt;/b&gt;" style="shape=callout;whiteSpace=wrap;html=1;perimeter=calloutPerimeter;rounded=1;shadow=1;glass=0;sketch=1;fontFamily=Comic Sans MS;fontSize=18;position2=0;fillColor=#ffe6cc;strokeColor=#d79b00;" parent="1" vertex="1">
          <mxGeometry x="765" y="1140" width="250" height="90" as="geometry" />
        </mxCell>
        <mxCell id="k4vfsh6spfzCN9NZeRVe-96" value="&lt;b&gt;&lt;font color=&quot;#006666&quot;&gt;2个线程同时竞争添加到表尾&lt;/font&gt;&lt;/b&gt;" style="rounded=1;whiteSpace=wrap;html=1;shadow=1;glass=0;sketch=1;fontFamily=Comic Sans MS;fontSize=18;strokeColor=#6c8ebf;fillColor=#dae8fc;" parent="1" vertex="1">
          <mxGeometry x="500" y="300" width="260" height="70" as="geometry" />
        </mxCell>
        <mxCell id="PcjiXraznFZHLs05Bcgx-3" value="&lt;b&gt;CAS&lt;/b&gt;" style="text;html=1;strokeColor=none;fillColor=none;align=center;verticalAlign=middle;whiteSpace=wrap;rounded=0;shadow=1;glass=0;sketch=1;fontFamily=Comic Sans MS;fontSize=18;fontColor=#006666;" vertex="1" parent="1">
          <mxGeometry x="580" y="450" width="60" height="30" as="geometry" />
        </mxCell>
        <mxCell id="PcjiXraznFZHLs05Bcgx-4" value="&lt;b&gt;CAS&lt;/b&gt;" style="text;html=1;strokeColor=none;fillColor=none;align=center;verticalAlign=middle;whiteSpace=wrap;rounded=0;shadow=1;glass=0;sketch=1;fontFamily=Comic Sans MS;fontSize=18;fontColor=#006666;" vertex="1" parent="1">
          <mxGeometry x="580" y="570" width="60" height="30" as="geometry" />
        </mxCell>
        <mxCell id="PcjiXraznFZHLs05Bcgx-6" value="&lt;b&gt;修改next和prev&lt;/b&gt;" style="rounded=1;whiteSpace=wrap;html=1;shadow=1;glass=0;sketch=1;fontFamily=Comic Sans MS;fontSize=18;fontColor=#006666;strokeColor=#999900;fillColor=default;gradientColor=none;" vertex="1" parent="1">
          <mxGeometry x="370" y="1450" width="180" height="60" as="geometry" />
        </mxCell>
      </root>
    </mxGraphModel>
  </diagram>
</mxfile>
